<?xml version="1.0" encoding="UTF-8" standalone="no"?>
<!-- Created with Inkscape (http://www.inkscape.org/) -->
<svg
   xmlns:dc="http://purl.org/dc/elements/1.1/"
   xmlns:cc="http://creativecommons.org/ns#"
   xmlns:rdf="http://www.w3.org/1999/02/22-rdf-syntax-ns#"
   xmlns:svg="http://www.w3.org/2000/svg"
   xmlns="http://www.w3.org/2000/svg"
   xmlns:xlink="http://www.w3.org/1999/xlink"
   xmlns:sodipodi="http://sodipodi.sourceforge.net/DTD/sodipodi-0.dtd"
   xmlns:inkscape="http://www.inkscape.org/namespaces/inkscape"
   width="48"
   height="48"
   id="svg2"
   sodipodi:version="0.32"
   inkscape:version="0.46"
   sodipodi:docname="weather-wind-rain.svg"
   inkscape:output_extension="org.inkscape.output.svg.inkscape"
   version="1.0"
   inkscape:export-filename="C:\icons\Tango\gnome-icon-theme-2.23.92\48x48\status\weather-wind-rain.png"
   inkscape:export-xdpi="90"
   inkscape:export-ydpi="90">
  <defs
     id="defs4">
    <linearGradient
       inkscape:collect="always"
       xlink:href="#linearGradient2900"
       id="linearGradient7472"
       gradientUnits="userSpaceOnUse"
       gradientTransform="matrix(1.450125,0,0,1.450125,-11.24629,-18.1654)"
       x1="25.17963"
       y1="40.619576"
       x2="25.124388"
       y2="43.569534" />
    <linearGradient
       inkscape:collect="always"
       xlink:href="#linearGradient3112"
       id="linearGradient7470"
       gradientUnits="userSpaceOnUse"
       x1="24.3125"
       y1="40.9375"
       x2="26.4375"
       y2="42.75" />
    <radialGradient
       inkscape:collect="always"
       xlink:href="#linearGradient3026"
       id="radialGradient7468"
       gradientUnits="userSpaceOnUse"
       gradientTransform="matrix(0.981466,-1.116269e-8,-1.541477e-7,1.697227,0.474046,-28.6464)"
       cx="24.958252"
       cy="41.579407"
       fx="24.958252"
       fy="41.579407"
       r="2.5" />
    <linearGradient
       inkscape:collect="always"
       xlink:href="#linearGradient2900"
       id="linearGradient7484"
       gradientUnits="userSpaceOnUse"
       gradientTransform="matrix(1.475458,0,0,1.475458,-11.88291,-19.18776)"
       x1="25.17963"
       y1="40.619576"
       x2="25.124388"
       y2="43.569534" />
    <radialGradient
       inkscape:collect="always"
       xlink:href="#linearGradient3026"
       id="radialGradient7482"
       gradientUnits="userSpaceOnUse"
       gradientTransform="matrix(0.981466,-1.116269e-8,-1.541477e-7,1.697227,0.474046,-28.6464)"
       cx="24.958252"
       cy="41.579407"
       fx="24.958252"
       fy="41.579407"
       r="2.5" />
    <linearGradient
       inkscape:collect="always"
       xlink:href="#linearGradient2900"
       id="linearGradient7466"
       gradientUnits="userSpaceOnUse"
       x1="25.17963"
       y1="40.619576"
       x2="25.124388"
       y2="43.569534" />
    <linearGradient
       id="linearGradient3112">
      <stop
         style="stop-color:#3465a4;stop-opacity:1;"
         offset="0"
         id="stop3114" />
      <stop
         style="stop-color:#204a87;stop-opacity:1"
         offset="1"
         id="stop3116" />
    </linearGradient>
    <linearGradient
       inkscape:collect="always"
       xlink:href="#linearGradient3112"
       id="linearGradient7464"
       gradientUnits="userSpaceOnUse"
       x1="24.3125"
       y1="40.9375"
       x2="26.4375"
       y2="42.75" />
    <radialGradient
       inkscape:collect="always"
       xlink:href="#linearGradient3026"
       id="radialGradient7462"
       gradientUnits="userSpaceOnUse"
       gradientTransform="matrix(0.981466,-1.116269e-8,-1.541477e-7,1.697227,0.474046,-28.6464)"
       cx="24.958252"
       cy="41.579407"
       fx="24.958252"
       fy="41.579407"
       r="2.5" />
    <linearGradient
       inkscape:collect="always"
       xlink:href="#linearGradient2900"
       id="linearGradient7476"
       gradientUnits="userSpaceOnUse"
       gradientTransform="matrix(1.382392,0,0,1.382392,-9.556942,-15.43194)"
       x1="25.17963"
       y1="40.619576"
       x2="25.124388"
       y2="43.569534" />
    <radialGradient
       inkscape:collect="always"
       xlink:href="#linearGradient3026"
       id="radialGradient7474"
       gradientUnits="userSpaceOnUse"
       gradientTransform="matrix(0.981466,-1.116269e-8,-1.541477e-7,1.697227,0.474046,-28.6464)"
       cx="24.958252"
       cy="41.579407"
       fx="24.958252"
       fy="41.579407"
       r="2.5" />
    <linearGradient
       inkscape:collect="always"
       xlink:href="#linearGradient2900"
       id="linearGradient7480"
       gradientUnits="userSpaceOnUse"
       x1="25.17963"
       y1="40.619576"
       x2="25.124388"
       y2="43.569534" />
    <radialGradient
       inkscape:collect="always"
       xlink:href="#linearGradient3026"
       id="radialGradient7478"
       gradientUnits="userSpaceOnUse"
       gradientTransform="matrix(0.981466,-1.116269e-8,-1.541477e-7,1.697227,0.474046,-28.6464)"
       cx="24.958252"
       cy="41.579407"
       fx="24.958252"
       fy="41.579407"
       r="2.5" />
    <linearGradient
       inkscape:collect="always"
       id="linearGradient2900">
      <stop
         style="stop-color:white;stop-opacity:1;"
         offset="0"
         id="stop2902" />
      <stop
         style="stop-color:white;stop-opacity:0;"
         offset="1"
         id="stop2904" />
    </linearGradient>
    <linearGradient
       inkscape:collect="always"
       xlink:href="#linearGradient2900"
       id="linearGradient7460"
       gradientUnits="userSpaceOnUse"
       x1="25.17963"
       y1="40.619576"
       x2="25.124388"
       y2="43.569534" />
    <linearGradient
       id="linearGradient3026">
      <stop
         id="stop3028"
         offset="0"
         style="stop-color:#729fcf;stop-opacity:0.3137255;" />
      <stop
         id="stop3030"
         offset="1"
         style="stop-color:#3465a4;stop-opacity:1" />
    </linearGradient>
    <radialGradient
       inkscape:collect="always"
       xlink:href="#linearGradient3026"
       id="radialGradient7458"
       gradientUnits="userSpaceOnUse"
       gradientTransform="matrix(0.981466,-1.116269e-8,-1.541477e-7,1.697227,0.474046,-28.6464)"
       cx="24.958252"
       cy="41.579407"
       fx="24.958252"
       fy="41.579407"
       r="2.5" />
    <linearGradient
       id="linearGradient6358">
      <stop
         style="stop-color:#eeeeec;stop-opacity:1;"
         offset="0"
         id="stop6360" />
      <stop
         style="stop-color:#b2b2a9;stop-opacity:1;"
         offset="1"
         id="stop6362" />
    </linearGradient>
    <linearGradient
       id="linearGradient6350">
      <stop
         style="stop-color:#f57900;stop-opacity:1;"
         offset="0"
         id="stop6352" />
      <stop
         style="stop-color:#9a4c00;stop-opacity:1;"
         offset="1"
         id="stop6354" />
    </linearGradient>
    <linearGradient
       id="linearGradient6334">
      <stop
         style="stop-color:#9a4400;stop-opacity:1;"
         offset="0"
         id="stop6336" />
      <stop
         style="stop-color:#fd7100;stop-opacity:1;"
         offset="1"
         id="stop6338" />
    </linearGradient>
    <linearGradient
       id="linearGradient6294">
      <stop
         style="stop-color:#555753;stop-opacity:1;"
         offset="0"
         id="stop6296" />
      <stop
         style="stop-color:#000000;stop-opacity:0;"
         offset="1"
         id="stop6298" />
    </linearGradient>
    <linearGradient
       inkscape:collect="always"
       id="linearGradient6278">
      <stop
         style="stop-color:#2e3436;stop-opacity:1;"
         offset="0"
         id="stop6280" />
      <stop
         style="stop-color:#2e3436;stop-opacity:0;"
         offset="1"
         id="stop6282" />
    </linearGradient>
    <linearGradient
       id="linearGradient6270">
      <stop
         style="stop-color:#ffffff;stop-opacity:1;"
         offset="0"
         id="stop6272" />
      <stop
         style="stop-color:#ffffff;stop-opacity:0;"
         offset="1"
         id="stop6274" />
    </linearGradient>
    <linearGradient
       inkscape:collect="always"
       id="linearGradient6260">
      <stop
         style="stop-color:#ffffff;stop-opacity:1;"
         offset="0"
         id="stop6262" />
      <stop
         style="stop-color:#ffffff;stop-opacity:0;"
         offset="1"
         id="stop6264" />
    </linearGradient>
    <inkscape:perspective
       sodipodi:type="inkscape:persp3d"
       inkscape:vp_x="0 : 526.18109 : 1"
       inkscape:vp_y="0 : 1000 : 0"
       inkscape:vp_z="744.09448 : 526.18109 : 1"
       inkscape:persp3d-origin="372.04724 : 350.78739 : 1"
       id="perspective10" />
    <linearGradient
       inkscape:collect="always"
       xlink:href="#linearGradient6260"
       id="linearGradient6266"
       x1="33.695824"
       y1="22.205372"
       x2="38.179462"
       y2="27.633877"
       gradientUnits="userSpaceOnUse" />
    <linearGradient
       inkscape:collect="always"
       xlink:href="#linearGradient6270"
       id="linearGradient6276"
       x1="35.076584"
       y1="27.719526"
       x2="35.076584"
       y2="34.372566"
       gradientUnits="userSpaceOnUse"
       gradientTransform="matrix(-0.6994967,0,0,0.9763682,57.686207,3.9477596)" />
    <linearGradient
       inkscape:collect="always"
       xlink:href="#linearGradient6278"
       id="linearGradient6284"
       x1="34.5"
       y1="40.359238"
       x2="34.5"
       y2="46.963058"
       gradientUnits="userSpaceOnUse" />
    <linearGradient
       inkscape:collect="always"
       xlink:href="#linearGradient6294"
       id="linearGradient6300"
       x1="35.201275"
       y1="40.359234"
       x2="35.201275"
       y2="47.060997"
       gradientUnits="userSpaceOnUse" />
    <linearGradient
       inkscape:collect="always"
       xlink:href="#linearGradient6278"
       id="linearGradient6302"
       gradientUnits="userSpaceOnUse"
       x1="34.5"
       y1="40.359238"
       x2="34.5"
       y2="42.866241"
       gradientTransform="matrix(1,0,0,1.1052632,-1,0.4210525)" />
    <linearGradient
       inkscape:collect="always"
       xlink:href="#linearGradient6294"
       id="linearGradient6304"
       gradientUnits="userSpaceOnUse"
       x1="35.201275"
       y1="40.359234"
       x2="35.201275"
       y2="42.914768"
       gradientTransform="matrix(1,0,0,1.1052632,-1,0.4210525)" />
    <radialGradient
       inkscape:collect="always"
       xlink:href="#linearGradient6334"
       id="radialGradient6340"
       cx="37.7173"
       cy="11.331988"
       fx="37.7173"
       fy="11.331988"
       r="2.2636078"
       gradientTransform="matrix(1,0,0,4.5521898,0,-39.313919)"
       gradientUnits="userSpaceOnUse" />
    <linearGradient
       inkscape:collect="always"
       xlink:href="#linearGradient6350"
       id="linearGradient6356"
       x1="18.892357"
       y1="20.039429"
       x2="23.443312"
       y2="26.704395"
       gradientUnits="userSpaceOnUse"
       gradientTransform="translate(0,2)" />
    <linearGradient
       inkscape:collect="always"
       xlink:href="#linearGradient6358"
       id="linearGradient6364"
       x1="18.521019"
       y1="40.274796"
       x2="22.0518"
       y2="40.274796"
       gradientUnits="userSpaceOnUse" />
    <linearGradient
       inkscape:collect="always"
       xlink:href="#linearGradient6358"
       id="linearGradient6366"
       x1="24.901546"
       y1="18.477438"
       x2="27.021955"
       y2="22.635401"
       gradientUnits="userSpaceOnUse" />
    <linearGradient
       inkscape:collect="always"
       xlink:href="#linearGradient6358"
       id="linearGradient6368"
       x1="20.410013"
       y1="33.191101"
       x2="24.59618"
       y2="34.414032"
       gradientUnits="userSpaceOnUse" />
    <linearGradient
       inkscape:collect="always"
       xlink:href="#linearGradient6358"
       id="linearGradient6378"
       gradientUnits="userSpaceOnUse"
       x1="18.521019"
       y1="40.274796"
       x2="22.0518"
       y2="40.274796"
       gradientTransform="translate(-6,-7.8445858)" />
    <linearGradient
       inkscape:collect="always"
       xlink:href="#linearGradient6358"
       id="linearGradient6382"
       gradientUnits="userSpaceOnUse"
       x1="24.901546"
       y1="18.477438"
       x2="27.021955"
       y2="22.635401"
       gradientTransform="translate(1.3452229,0.5936306)" />
    <linearGradient
       inkscape:collect="always"
       xlink:href="#linearGradient6358"
       id="linearGradient6329"
       x1="16.336069"
       y1="22.56534"
       x2="20.047697"
       y2="27.580843"
       gradientUnits="userSpaceOnUse" />
    <linearGradient
       inkscape:collect="always"
       xlink:href="#linearGradient6358"
       id="linearGradient6498"
       gradientUnits="userSpaceOnUse"
       x1="16.336069"
       y1="22.56534"
       x2="20.047697"
       y2="27.580843" />
    <linearGradient
       inkscape:collect="always"
       xlink:href="#linearGradient6358"
       id="linearGradient6501"
       gradientUnits="userSpaceOnUse"
       gradientTransform="translate(-6,-7.8445858)"
       x1="18.521019"
       y1="40.274796"
       x2="22.0518"
       y2="40.274796" />
    <linearGradient
       inkscape:collect="always"
       xlink:href="#linearGradient6358"
       id="linearGradient6510"
       gradientUnits="userSpaceOnUse"
       gradientTransform="translate(1.3452229,0.5936306)"
       x1="24.901546"
       y1="18.477438"
       x2="27.021955"
       y2="22.635401" />
    <linearGradient
       inkscape:collect="always"
       xlink:href="#linearGradient6350"
       id="linearGradient6514"
       gradientUnits="userSpaceOnUse"
       gradientTransform="translate(0,2)"
       x1="18.892357"
       y1="20.039429"
       x2="23.443312"
       y2="26.704395" />
  </defs>
  <sodipodi:namedview
     id="base"
     pagecolor="#ffffff"
     bordercolor="#666666"
     borderopacity="1.0"
     gridtolerance="10000"
     guidetolerance="10"
     objecttolerance="10"
     inkscape:pageopacity="0.0"
     inkscape:pageshadow="2"
     inkscape:zoom="16.354167"
     inkscape:cx="24"
     inkscape:cy="24"
     inkscape:document-units="px"
     inkscape:current-layer="layer1"
     showgrid="false"
     inkscape:snap-bbox="true"
     inkscape:snap-nodes="false"
     inkscape:window-width="644"
     inkscape:window-height="654"
     inkscape:window-x="1603"
     inkscape:window-y="78"
     inkscape:showpageshadow="false"
     showguides="true"
     inkscape:guide-bbox="true" />
  <metadata
     id="metadata7">
    <rdf:RDF>
      <cc:Work
         rdf:about="">
        <dc:format>image/svg+xml</dc:format>
        <dc:type
           rdf:resource="http://purl.org/dc/dcmitype/StillImage" />
      </cc:Work>
    </rdf:RDF>
  </metadata>
  <g
     inkscape:label="Layer 1"
     inkscape:groupmode="layer"
     id="layer1">
    <path
       style="fill:url(#linearGradient6514);fill-opacity:1;fill-rule:evenodd;stroke:#a34900;stroke-width:1px;stroke-linecap:butt;stroke-linejoin:miter;stroke-opacity:1"
       d="M 34.5,24.111465 C 21.173112,26.855054 20.028007,25.303315 17.5,33.18856 C 16.171526,35.489544 4.5,34.856699 4.5,33.155 C 4.5,13.625942 14.061417,10.619141 17.86879,8.9095544 C 25.461221,5.5004009 32.23324,1.5956937 34.5,2.9477707 L 34.5,24.111465 z"
       id="path6250"
       sodipodi:nodetypes="cccscc" />
    <path
       sodipodi:type="arc"
       style="fill:url(#radialGradient6340);fill-opacity:1;fill-rule:evenodd;stroke:#a34900;stroke-width:0.91957228999999996;stroke-linecap:round;stroke-linejoin:round;stroke-miterlimit:4;stroke-dasharray:none;stroke-dashoffset:0;stroke-opacity:1"
       id="path6246"
       sodipodi:cx="39.592358"
       sodipodi:cy="11.067516"
       sodipodi:rx="1.8038217"
       sodipodi:ry="9.8445864"
       d="M 41.396179,11.067516 A 1.8038217,9.8445864 0 1 1 37.788536,11.067516 A 1.8038217,9.8445864 0 1 1 41.396179,11.067516 z"
       transform="matrix(1.108757,0,0,1.066576,-9.398304,1.6956532)" />
    <path
       style="fill:url(#linearGradient6510);fill-opacity:1;fill-rule:evenodd;stroke:none;stroke-width:1px;stroke-linecap:butt;stroke-linejoin:miter;stroke-opacity:1"
       d="M 28.917497,24.639236 C 25.529304,21.978537 24.495736,8.8398502 26.812062,5.2658452 C 25.378102,6.0071278 23.544449,6.7781813 22.318472,7.4033699 C 21.293571,11.658689 21.904002,22.643326 25.080075,25.326556 L 28.917497,24.639236 z"
       id="path6252"
       sodipodi:nodetypes="ccccc" />
    <path
       style="opacity:0.35;fill:none;fill-rule:evenodd;stroke:#ffffff;stroke-width:1px;stroke-linecap:butt;stroke-linejoin:miter;stroke-opacity:1"
       d="M 32.661921,3.7437186 C 30.7503,3.902369 26.27409,6.1688622 21.823552,8.2060473 C 18.427113,9.7607296 15.196165,11.083629 13.514237,12.24625 C 7.527389,16.384617 5.5,24.35016 5.5,32.571012 C 5.5,33.413981 16.510516,33.067977 16.655545,32.571012 C 17.702671,29.237784 18.67432,27.509337 20.444177,26.370467 C 22.820552,24.841314 27.697169,24.482702 32.777433,23.442565 C 31.791867,21.096771 31.485544,16.913422 31.488352,13.020949 C 31.49074,9.7115155 31.811,6.3779372 32.661921,3.7437186 z"
       id="path6330"
       sodipodi:nodetypes="cssccscsc" />
    <g
       id="g5545">
      <rect
         y="27.5"
         x="32.5"
         height="21"
         width="1.9999999"
         id="rect6256"
         style="opacity:1;fill:url(#linearGradient6304);fill-opacity:1;fill-rule:evenodd;stroke:url(#linearGradient6302);stroke-width:1;stroke-linecap:round;stroke-linejoin:round;stroke-miterlimit:4;stroke-dasharray:none;stroke-dashoffset:0;stroke-opacity:1" />
      <path
         transform="matrix(0.8722223,0,0,0.8386752,2.8409737,6.1108211)"
         d="M 37.36051,24.397451 A 2.2929935,2.3847134 0 1 1 32.774523,24.397451 A 2.2929935,2.3847134 0 1 1 37.36051,24.397451 z"
         sodipodi:ry="2.3847134"
         sodipodi:rx="2.2929935"
         sodipodi:cy="24.397451"
         sodipodi:cx="35.067516"
         id="path6254"
         style="opacity:1;fill:#555753;fill-opacity:1;fill-rule:evenodd;stroke:#2e3436;stroke-width:1.16920185;stroke-linecap:round;stroke-linejoin:round;stroke-miterlimit:4;stroke-dasharray:none;stroke-dashoffset:0;stroke-opacity:1"
         sodipodi:type="arc" />
      <path
         transform="matrix(0.4361111,0,0,0.4193376,18.160424,16.343504)"
         d="M 37.36051,24.397451 A 2.2929935,2.3847134 0 1 1 32.774523,24.397451 A 2.2929935,2.3847134 0 1 1 37.36051,24.397451 z"
         sodipodi:ry="2.3847134"
         sodipodi:rx="2.2929935"
         sodipodi:cy="24.397451"
         sodipodi:cx="35.067516"
         id="path6258"
         style="opacity:0.5;fill:none;fill-opacity:1;fill-rule:evenodd;stroke:url(#linearGradient6266);stroke-width:2.33840394;stroke-linecap:round;stroke-linejoin:round;stroke-miterlimit:4;stroke-dasharray:none;stroke-dashoffset:0;stroke-opacity:1"
         sodipodi:type="arc" />
      <path
         id="path6268"
         d="M 33.540307,29.5 L 33.540307,45.5 L 33.5,45.5"
         style="opacity:0.5;fill:none;fill-rule:evenodd;stroke:url(#linearGradient6276);stroke-width:1px;stroke-linecap:square;stroke-linejoin:miter;stroke-opacity:1" />
    </g>
    <path
       style="fill:url(#linearGradient6501);fill-opacity:1;fill-rule:evenodd;stroke:none;stroke-width:1px;stroke-linecap:butt;stroke-linejoin:miter;stroke-opacity:1"
       d="M 17.845131,30.616561 C 14.237181,31.473357 9.4837869,32.029852 5.0541789,30.127389 L 5,33.119535 C 6.459444,34.459659 15.774439,34.686086 17.03539,32.965625 C 17.259501,32.297477 17.61182,31.202933 17.845131,30.616561 z"
       id="path6308"
       sodipodi:nodetypes="ccccc" />
    <path
       style="fill:url(#linearGradient6498);fill-opacity:1;fill-rule:evenodd;stroke:none;stroke-width:1px;stroke-linecap:butt;stroke-linejoin:miter;stroke-opacity:1"
       d="M 21.42851,26.392713 C 16.897318,24.216223 12.354386,17.838347 12.735294,12.217271 C 11.280881,13.280209 10.698696,13.855297 9.7375796,15.210191 C 9.936369,19.162292 14.259064,26.398658 19.034787,28.408111 C 19.821621,27.159535 20.666246,26.784413 21.42851,26.392713 z"
       id="path5551"
       sodipodi:nodetypes="ccccc" />
    <g
       id="g2908"
       transform="matrix(1,0,-0.217784,0.9989056,21.05511,0.4987009)">
      <path
         sodipodi:nodetypes="cszcz"
         id="path2877"
         d="M 27.5,42.5 C 27.5,43.604 26.604,44.5 25.5,44.5 C 24.396,44.5 23.5,43.604 23.5,42.5 C 23.5,41.396001 25.491987,36.502148 25.5,36.500001 C 25.510497,36.500001 27.5,41.396001 27.5,42.5 z"
         style="fill:url(#radialGradient7468);fill-opacity:1;stroke:url(#linearGradient7470);stroke-width:1.00054753;stroke-linecap:round;stroke-linejoin:miter;stroke-miterlimit:4;stroke-dashoffset:1.20000057;stroke-opacity:1" />
      <path
         sodipodi:nodetypes="cszcz"
         id="path2898"
         d="M 25.568078,42.684035 C 25.457176,43.400777 25.074692,43.773398 24.674458,43.773398 C 24.274223,43.773398 24.014085,43.355314 24.117953,42.684035 C 24.224156,41.997658 25.728707,36.941171 25.731895,36.93934 C 25.7357,36.93934 25.681316,41.952198 25.568078,42.684035 z"
         style="fill:url(#linearGradient7472);fill-opacity:1;stroke:none;stroke-width:0.99999988;stroke-linecap:round;stroke-linejoin:miter;stroke-miterlimit:4;stroke-dashoffset:1.20000057;stroke-opacity:1" />
    </g>
    <g
       id="g3042"
       transform="matrix(0.655187,0,-0.171817,0.7880686,29.59466,-26.214149)">
      <path
         sodipodi:nodetypes="cszcz"
         id="path3044"
         d="M 27.5,42.5 C 27.5,43.604 26.604,44.5 25.5,44.5 C 24.396,44.5 23.5,43.604 23.5,42.5 C 23.5,41.396001 25.491987,36.502148 25.5,36.500001 C 25.510497,36.500001 27.5,41.396001 27.5,42.5 z"
         style="fill:url(#radialGradient7482);fill-opacity:1;stroke:#3465a4;stroke-width:1.39166832;stroke-linecap:round;stroke-linejoin:miter;stroke-miterlimit:4;stroke-dashoffset:1.20000057;stroke-opacity:1" />
      <path
         sodipodi:nodetypes="cszcz"
         id="path3046"
         d="M 25.574593,42.724699 C 25.461753,43.453962 25.072588,43.833092 24.665361,43.833092 C 24.258135,43.833092 23.993452,43.407705 24.099135,42.724699 C 24.207193,42.026331 25.738028,36.881509 25.741271,36.879646 C 25.745143,36.879646 25.689809,41.980077 25.574593,42.724699 z"
         style="fill:url(#linearGradient7484);fill-opacity:1;stroke:none;stroke-width:0.99999988;stroke-linecap:round;stroke-linejoin:miter;stroke-miterlimit:4;stroke-dashoffset:1.20000057;stroke-opacity:1" />
    </g>
    <g
       id="g3120"
       transform="matrix(1,0,-0.217784,0.9989056,1.7989103,-16.194819)">
      <path
         sodipodi:nodetypes="cszcz"
         id="path3122"
         d="M 27.5,42.5 C 27.5,43.604 26.604,44.5 25.5,44.5 C 24.396,44.5 23.5,43.604 23.5,42.5 C 23.5,41.396001 25.491987,36.502148 25.5,36.500001 C 25.510497,36.500001 27.5,41.396001 27.5,42.5 z"
         style="fill:url(#radialGradient7462);fill-opacity:1;stroke:url(#linearGradient7464);stroke-width:1.00054753;stroke-linecap:round;stroke-linejoin:miter;stroke-miterlimit:4;stroke-dashoffset:1.20000057;stroke-opacity:1" />
      <path
         sodipodi:nodetypes="cszcz"
         id="path3124"
         d="M 25.387033,41.961518 C 25.310555,42.45578 25.046796,42.712738 24.770796,42.712738 C 24.494796,42.712738 24.315406,42.424429 24.387033,41.961518 C 24.46027,41.488195 25.497802,38.001263 25.5,38 C 25.502624,38 25.465121,41.456846 25.387033,41.961518 z"
         style="fill:url(#linearGradient7466);fill-opacity:1;stroke:none;stroke-width:0.99999988;stroke-linecap:round;stroke-linejoin:miter;stroke-miterlimit:4;stroke-dashoffset:1.20000057;stroke-opacity:1" />
    </g>
    <g
       id="g3132"
       transform="matrix(0.762446,0,-0.199945,0.9798685,30.90266,-18.049309)">
      <path
         sodipodi:nodetypes="cszcz"
         id="path3134"
         d="M 27.5,42.5 C 27.5,43.604 26.604,44.5 25.5,44.5 C 24.396,44.5 23.5,43.604 23.5,42.5 C 23.5,41.396001 25.491987,36.502148 25.5,36.500001 C 25.510497,36.500001 27.5,41.396001 27.5,42.5 z"
         style="fill:url(#radialGradient7474);fill-opacity:1;stroke:#3465a4;stroke-width:1.15694296;stroke-linecap:round;stroke-linejoin:miter;stroke-miterlimit:4;stroke-dashoffset:1.20000057;stroke-opacity:1" />
      <path
         sodipodi:nodetypes="cszcz"
         id="path3136"
         d="M 25.53788,42.575314 C 25.432157,43.258577 25.067539,43.613794 24.685999,43.613794 C 24.304459,43.613794 24.056472,43.215238 24.155488,42.575314 C 24.256731,41.920996 25.691006,37.10069 25.694045,37.098944 C 25.697672,37.098944 25.645828,41.877659 25.53788,42.575314 z"
         style="fill:url(#linearGradient7476);fill-opacity:1;stroke:none;stroke-width:0.99999988;stroke-linecap:round;stroke-linejoin:miter;stroke-miterlimit:4;stroke-dashoffset:1.20000057;stroke-opacity:1" />
    </g>
    <g
       id="g3142"
       transform="matrix(0.503067,0,-0.131925,0.605096,-0.6789397,-12.220509)">
      <path
         sodipodi:nodetypes="cszcz"
         id="path3144"
         d="M 27.5,42.5 C 27.5,43.604 26.604,44.5 25.5,44.5 C 24.396,44.5 23.5,43.604 23.5,42.5 C 23.5,41.396001 25.491987,36.502148 25.5,36.500001 C 25.510497,36.500001 27.5,41.396001 27.5,42.5 z"
         style="fill:url(#radialGradient7478);fill-opacity:1;stroke:#3465a4;stroke-width:1.81248844;stroke-linecap:round;stroke-linejoin:miter;stroke-miterlimit:4;stroke-dashoffset:1.20000057;stroke-opacity:1" />
      <path
         sodipodi:nodetypes="cszcz"
         id="path3146"
         d="M 25.387033,41.961518 C 25.310555,42.45578 25.046796,42.712738 24.770796,42.712738 C 24.494796,42.712738 24.315406,42.424429 24.387033,41.961518 C 24.46027,41.488195 25.497802,38.001263 25.5,38 C 25.502624,38 25.465121,41.456846 25.387033,41.961518 z"
         style="fill:url(#linearGradient7480);fill-opacity:1;stroke:none;stroke-width:0.99999988;stroke-linecap:round;stroke-linejoin:miter;stroke-miterlimit:4;stroke-dashoffset:1.20000057;stroke-opacity:1" />
    </g>
    <g
       id="g3152"
       transform="matrix(0.503067,0,-0.131925,0.605096,-0.9550297,8.5909409)">
      <path
         sodipodi:nodetypes="cszcz"
         id="path3154"
         d="M 27.5,42.5 C 27.5,43.604 26.604,44.5 25.5,44.5 C 24.396,44.5 23.5,43.604 23.5,42.5 C 23.5,41.396001 25.491987,36.502148 25.5,36.500001 C 25.510497,36.500001 27.5,41.396001 27.5,42.5 z"
         style="fill:url(#radialGradient7458);fill-opacity:1;stroke:#3465a4;stroke-width:1.81248844;stroke-linecap:round;stroke-linejoin:miter;stroke-miterlimit:4;stroke-dashoffset:1.20000057;stroke-opacity:1" />
      <path
         sodipodi:nodetypes="cszcz"
         id="path3156"
         d="M 25.387033,41.961518 C 25.310555,42.45578 25.046796,42.712738 24.770796,42.712738 C 24.494796,42.712738 24.315406,42.424429 24.387033,41.961518 C 24.46027,41.488195 25.497802,38.001263 25.5,38 C 25.502624,38 25.465121,41.456846 25.387033,41.961518 z"
         style="fill:url(#linearGradient7460);fill-opacity:1;stroke:none;stroke-width:0.99999988;stroke-linecap:round;stroke-linejoin:miter;stroke-miterlimit:4;stroke-dashoffset:1.20000057;stroke-opacity:1" />
    </g>
  </g>
</svg>
