<?xml version="1.0" encoding="UTF-8" standalone="no"?>
<!-- Created with Inkscape (http://www.inkscape.org/) -->
<svg
   xmlns:dc="http://purl.org/dc/elements/1.1/"
   xmlns:cc="http://creativecommons.org/ns#"
   xmlns:rdf="http://www.w3.org/1999/02/22-rdf-syntax-ns#"
   xmlns:svg="http://www.w3.org/2000/svg"
   xmlns="http://www.w3.org/2000/svg"
   xmlns:xlink="http://www.w3.org/1999/xlink"
   xmlns:sodipodi="http://sodipodi.sourceforge.net/DTD/sodipodi-0.dtd"
   xmlns:inkscape="http://www.inkscape.org/namespaces/inkscape"
   width="48px"
   height="48px"
   id="svg1306"
   sodipodi:version="0.32"
   inkscape:version="0.46"
   sodipodi:docbase="/home/dobey/Projects/gnome-icon-theme/scalable/status"
   sodipodi:docname="weather-hail.svg"
   inkscape:output_extension="org.inkscape.output.svg.inkscape"
   inkscape:export-filename="C:\icons\Tango\gnome-icon-theme-2.23.92\48x48\status\weather-hail.png"
   inkscape:export-xdpi="90"
   inkscape:export-ydpi="90">
  <defs
     id="defs1308">
    <linearGradient
       inkscape:collect="always"
       xlink:href="#linearGradient2900"
       id="linearGradient2914"
       gradientUnits="userSpaceOnUse"
       x1="25.17963"
       y1="40.619576"
       x2="25.124388"
       y2="43.569534"
       gradientTransform="matrix(1.450125,0,0,1.450125,-11.24629,-18.1654)" />
    <linearGradient
       inkscape:collect="always"
       xlink:href="#linearGradient3112"
       id="linearGradient3118"
       x1="24.3125"
       y1="40.9375"
       x2="26.4375"
       y2="42.75"
       gradientUnits="userSpaceOnUse" />
    <radialGradient
       inkscape:collect="always"
       xlink:href="#linearGradient3026"
       id="radialGradient2912"
       gradientUnits="userSpaceOnUse"
       gradientTransform="matrix(0.981466,-1.116269e-8,-1.541477e-7,1.697227,0.474046,-28.6464)"
       cx="24.958252"
       cy="41.579407"
       fx="24.958252"
       fy="41.579407"
       r="2.4999999" />
    <linearGradient
       inkscape:collect="always"
       xlink:href="#linearGradient2900"
       id="linearGradient3050"
       gradientUnits="userSpaceOnUse"
       x1="25.17963"
       y1="40.619576"
       x2="25.124388"
       y2="43.569534"
       gradientTransform="matrix(1.475458,0,0,1.475458,-11.88291,-19.18776)" />
    <radialGradient
       inkscape:collect="always"
       xlink:href="#linearGradient3026"
       id="radialGradient3048"
       gradientUnits="userSpaceOnUse"
       gradientTransform="matrix(0.981466,-1.116269e-8,-1.541477e-7,1.697227,0.474046,-28.6464)"
       cx="24.958252"
       cy="41.579407"
       fx="24.958252"
       fy="41.579407"
       r="2.4999999" />
    <linearGradient
       inkscape:collect="always"
       xlink:href="#linearGradient2900"
       id="linearGradient3130"
       gradientUnits="userSpaceOnUse"
       x1="25.17963"
       y1="40.619576"
       x2="25.124388"
       y2="43.569534" />
    <linearGradient
       id="linearGradient3112">
      <stop
         style="stop-color:#3465a4;stop-opacity:1;"
         offset="0"
         id="stop3114" />
      <stop
         style="stop-color:#204a87;stop-opacity:1"
         offset="1"
         id="stop3116" />
    </linearGradient>
    <linearGradient
       inkscape:collect="always"
       xlink:href="#linearGradient3112"
       id="linearGradient3128"
       gradientUnits="userSpaceOnUse"
       x1="24.3125"
       y1="40.9375"
       x2="26.4375"
       y2="42.75" />
    <radialGradient
       inkscape:collect="always"
       xlink:href="#linearGradient3026"
       id="radialGradient3126"
       gradientUnits="userSpaceOnUse"
       gradientTransform="matrix(0.981466,-1.116269e-8,-1.541477e-7,1.697227,0.474046,-28.6464)"
       cx="24.958252"
       cy="41.579407"
       fx="24.958252"
       fy="41.579407"
       r="2.4999999" />
    <linearGradient
       inkscape:collect="always"
       xlink:href="#linearGradient2900"
       id="linearGradient3140"
       gradientUnits="userSpaceOnUse"
       x1="25.17963"
       y1="40.619576"
       x2="25.124388"
       y2="43.569534"
       gradientTransform="matrix(1.382392,0,0,1.382392,-9.556942,-15.43194)" />
    <radialGradient
       inkscape:collect="always"
       xlink:href="#linearGradient3026"
       id="radialGradient3138"
       gradientUnits="userSpaceOnUse"
       gradientTransform="matrix(0.981466,-1.116269e-8,-1.541477e-7,1.697227,0.474046,-28.6464)"
       cx="24.958252"
       cy="41.579407"
       fx="24.958252"
       fy="41.579407"
       r="2.4999999" />
    <linearGradient
       inkscape:collect="always"
       xlink:href="#linearGradient2900"
       id="linearGradient3150"
       gradientUnits="userSpaceOnUse"
       x1="25.17963"
       y1="40.619576"
       x2="25.124388"
       y2="43.569534" />
    <radialGradient
       inkscape:collect="always"
       xlink:href="#linearGradient3026"
       id="radialGradient3148"
       gradientUnits="userSpaceOnUse"
       gradientTransform="matrix(0.981466,-1.116269e-8,-1.541477e-7,1.697227,0.474046,-28.6464)"
       cx="24.958252"
       cy="41.579407"
       fx="24.958252"
       fy="41.579407"
       r="2.4999999" />
    <linearGradient
       inkscape:collect="always"
       id="linearGradient2900">
      <stop
         style="stop-color:white;stop-opacity:1;"
         offset="0"
         id="stop2902" />
      <stop
         style="stop-color:white;stop-opacity:0;"
         offset="1"
         id="stop2904" />
    </linearGradient>
    <linearGradient
       inkscape:collect="always"
       xlink:href="#linearGradient2900"
       id="linearGradient3160"
       gradientUnits="userSpaceOnUse"
       x1="25.17963"
       y1="40.619576"
       x2="25.124388"
       y2="43.569534" />
    <linearGradient
       id="linearGradient3026">
      <stop
         id="stop3028"
         offset="0"
         style="stop-color:#9abadd;stop-opacity:0.3137255;" />
      <stop
         id="stop3030"
         offset="1"
         style="stop-color:#a6c1e3;stop-opacity:1;" />
    </linearGradient>
    <radialGradient
       inkscape:collect="always"
       xlink:href="#linearGradient3026"
       id="radialGradient3158"
       gradientUnits="userSpaceOnUse"
       gradientTransform="matrix(0.981466,-1.116269e-8,-1.541477e-7,1.697227,0.474046,-28.6464)"
       cx="24.958252"
       cy="41.579407"
       fx="24.958252"
       fy="41.579407"
       r="2.4999999" />
    <inkscape:perspective
       sodipodi:type="inkscape:persp3d"
       inkscape:vp_x="0 : 24 : 1"
       inkscape:vp_y="0 : 1000 : 0"
       inkscape:vp_z="48 : 24 : 1"
       inkscape:persp3d-origin="24 : 16 : 1"
       id="perspective5796" />
    <linearGradient
       inkscape:collect="always"
       id="linearGradient3123">
      <stop
         style="stop-color:black;stop-opacity:1;"
         offset="0"
         id="stop3125" />
      <stop
         style="stop-color:black;stop-opacity:0;"
         offset="1"
         id="stop3127" />
    </linearGradient>
    <linearGradient
       id="linearGradient3389">
      <stop
         style="stop-color:white;stop-opacity:1"
         offset="0"
         id="stop3391" />
      <stop
         id="stop3397"
         offset="0.26506025"
         style="stop-color:white;stop-opacity:1;" />
      <stop
         style="stop-color:#babdb6;stop-opacity:1"
         offset="1"
         id="stop3393" />
    </linearGradient>
    <radialGradient
       inkscape:collect="always"
       xlink:href="#linearGradient3389"
       id="radialGradient3080"
       cx="20.387419"
       cy="17.105022"
       fx="20.387419"
       fy="17.105022"
       r="24"
       gradientTransform="matrix(1.941537,0,0,0.691557,-19.95792,7.170901)"
       gradientUnits="userSpaceOnUse" />
    <radialGradient
       inkscape:collect="always"
       xlink:href="#linearGradient3123"
       id="radialGradient3129"
       cx="24.000002"
       cy="25.344858"
       fx="24.000002"
       fy="25.344858"
       r="24"
       gradientTransform="matrix(1.194997,0,0,0.484904,-4.679924,11.44763)"
       gradientUnits="userSpaceOnUse" />
    <linearGradient
       inkscape:collect="always"
       xlink:href="#linearGradient2900"
       id="linearGradient5858"
       gradientUnits="userSpaceOnUse"
       x1="25.17963"
       y1="40.619576"
       x2="25.124388"
       y2="43.569534"
       gradientTransform="matrix(0.503067,0,-0.131925,0.605759,4.0194813,19.466769)" />
    <radialGradient
       inkscape:collect="always"
       xlink:href="#linearGradient3026"
       id="radialGradient5861"
       gradientUnits="userSpaceOnUse"
       gradientTransform="matrix(0.4937432,0,-0.2239067,1.0281105,8.0371345,2.1139545)"
       cx="24.958252"
       cy="41.579407"
       fx="24.958252"
       fy="41.579407"
       r="2.4999999" />
    <linearGradient
       inkscape:collect="always"
       xlink:href="#linearGradient2900"
       id="linearGradient5864"
       gradientUnits="userSpaceOnUse"
       x1="25.17963"
       y1="40.619576"
       x2="25.124388"
       y2="43.569534"
       gradientTransform="matrix(0.503067,0,-0.131925,0.605759,1.5439703,12.466769)" />
    <radialGradient
       inkscape:collect="always"
       xlink:href="#linearGradient3026"
       id="radialGradient5867"
       gradientUnits="userSpaceOnUse"
       gradientTransform="matrix(0.4937432,0,-0.2239067,1.0281105,5.5616235,-4.8860455)"
       cx="24.958252"
       cy="41.579407"
       fx="24.958252"
       fy="41.579407"
       r="2.4999999" />
    <linearGradient
       inkscape:collect="always"
       xlink:href="#linearGradient2900"
       id="linearGradient5870"
       gradientUnits="userSpaceOnUse"
       x1="25.17963"
       y1="40.619576"
       x2="25.124388"
       y2="43.569534"
       gradientTransform="matrix(1,0,-0.217784,1,2.7988913,-0.9999999)" />
    <radialGradient
       inkscape:collect="always"
       xlink:href="#linearGradient3026"
       id="radialGradient5873"
       gradientUnits="userSpaceOnUse"
       gradientTransform="matrix(0.981466,-1.116269e-8,-0.369629,1.697227,9.5116649,-29.6464)"
       cx="24.958252"
       cy="41.579407"
       fx="24.958252"
       fy="41.579407"
       r="2.4999999" />
    <linearGradient
       inkscape:collect="always"
       xlink:href="#linearGradient2900"
       id="linearGradient5878"
       gradientUnits="userSpaceOnUse"
       gradientTransform="matrix(0.9667009,0,-0.2535088,1.164036,12.653671,-9.0895618)"
       x1="25.17963"
       y1="40.619576"
       x2="25.124388"
       y2="43.569534" />
    <radialGradient
       inkscape:collect="always"
       xlink:href="#linearGradient3026"
       id="radialGradient5881"
       gradientUnits="userSpaceOnUse"
       gradientTransform="matrix(0.6430438,0,-0.2916126,1.3389967,22.374943,-16.551786)"
       cx="24.958252"
       cy="41.579407"
       fx="24.958252"
       fy="41.579407"
       r="2.4999999" />
    <linearGradient
       inkscape:collect="always"
       xlink:href="#linearGradient2900"
       id="linearGradient5884"
       gradientUnits="userSpaceOnUse"
       gradientTransform="matrix(1.450125,0,-0.315814,1.450125,7.8553799,-16.1654)"
       x1="25.17963"
       y1="40.619576"
       x2="25.124388"
       y2="43.569534" />
    <radialGradient
       inkscape:collect="always"
       xlink:href="#linearGradient3026"
       id="radialGradient5887"
       gradientUnits="userSpaceOnUse"
       gradientTransform="matrix(0.981466,-1.116269e-8,-0.369629,1.697227,21.85831,-26.6464)"
       cx="24.958252"
       cy="41.579407"
       fx="24.958252"
       fy="41.579407"
       r="2.4999999" />
    <linearGradient
       inkscape:collect="always"
       xlink:href="#linearGradient2900"
       id="linearGradient5892"
       gradientUnits="userSpaceOnUse"
       gradientTransform="matrix(1.0539993,0,-0.2764024,1.3560464,23.849303,-18.055551)"
       x1="25.17963"
       y1="40.619576"
       x2="25.124388"
       y2="43.569534" />
    <radialGradient
       inkscape:collect="always"
       xlink:href="#linearGradient3026"
       id="radialGradient5895"
       gradientUnits="userSpaceOnUse"
       gradientTransform="matrix(0.7483148,-1.0949951e-8,-0.3393522,1.6648812,34.139555,-31.01817)"
       cx="24.958252"
       cy="41.579407"
       fx="24.958252"
       fy="41.579407"
       r="2.4999999" />
  </defs>
  <sodipodi:namedview
     id="base"
     pagecolor="#ffffff"
     bordercolor="#666"
     borderopacity="1"
     inkscape:pageopacity="0.0"
     inkscape:pageshadow="2"
     inkscape:zoom="1"
     inkscape:cx="24"
     inkscape:cy="21.55414"
     inkscape:current-layer="layer1"
     showgrid="false"
     inkscape:grid-bbox="true"
     inkscape:document-units="px"
     inkscape:window-width="1051"
     inkscape:window-height="900"
     inkscape:window-x="479"
     inkscape:window-y="71"
     inkscape:showpageshadow="false"
     showborder="false"
     showguides="true"
     inkscape:guide-bbox="true" />
  <metadata
     id="metadata1311">
    <rdf:RDF>
      <cc:Work
         rdf:about="">
        <dc:format>image/svg+xml</dc:format>
        <dc:type
           rdf:resource="http://purl.org/dc/dcmitype/StillImage" />
        <cc:license
           rdf:resource="" />
      </cc:Work>
    </rdf:RDF>
  </metadata>
  <g
     id="layer1"
     inkscape:label="Layer 1"
     inkscape:groupmode="layer">
    <g
       id="g6875">
      <path
         d="M 27,11 C 25.352656,11 24,12.352656 24,14 C 24,14.046313 24.028848,14.079998 24.03125,14.125 C 20.934234,14.427317 18.268841,16.112104 16.65625,18.59375 C 16.006617,18.239183 15.282322,18 14.5,18 C 14.292036,18 14.124896,18.061474 13.9375,18.09375 C 13.736624,16.919945 12.728639,16 11.5,16 C 10.128657,16 8.9999998,17.128655 9,18.5 C 9,19.472692 9.5849886,20.304447 10.40625,20.71875 C 10.190761,21.210421 10.056183,21.746483 10.03125,22.3125 C 9.5500036,22.128963 9.0482675,22 8.5,22 C 6.8856991,22 5.5076389,22.873832 4.71875,24.15625 C 4.2220002,23.793149 3.658547,23.5 3,23.5 C 1.3526576,23.5 -2.387456e-08,24.852661 0,26.5 C 0,28.147338 1.3526574,29.5 3,29.5 C 3.658547,29.5 4.2220002,29.206851 4.71875,28.84375 C 5.507639,30.126167 6.8856995,30.999999 8.5,31 C 9.2982101,31 10.012358,30.740585 10.65625,30.375 C 11.548154,32.189142 13.341338,33.5 15.5,33.5 C 16.907152,33.5 18.127882,32.900586 19.09375,32.03125 C 20.751175,33.254647 22.78471,34 25,34 C 27.92617,34 30.545933,32.696246 32.375,30.6875 C 33.385251,31.471869 34.620867,32 36,32 C 37.550792,32 38.908192,31.341916 39.96875,30.375 C 40.568608,30.741907 41.240931,31 42,31 C 43.038042,31 43.918439,30.525733 44.625,29.875 C 44.986081,30.24032 45.448989,30.5 46,30.5 C 47.09534,30.5 48.000003,29.595346 48,28.5 C 48,27.404654 47.095339,26.500001 46,26.5 C 45.963489,26.5 45.941612,26.529027 45.90625,26.53125 C 45.664459,24.560223 44.034388,23 42,23 C 41.730971,23 41.473144,23.073607 41.21875,23.125 C 40.484022,21.798621 39.279092,20.813255 37.8125,20.34375 C 37.889819,20.067532 38,19.809778 38,19.5 C 38,17.576656 36.423344,16 34.5,16 C 33.565899,16 32.757348,16.428943 32.125,17.03125 C 31.412251,16.308542 30.587282,15.728941 29.6875,15.25 C 29.863684,14.860731 30,14.445177 30,14 C 30,12.352656 28.647343,11 27,11 z "
         id="path3113"
         style="opacity:0.3;fill:url(#radialGradient3129);fill-opacity:1.0;stroke:none;stroke-width:1;stroke-linecap:round;stroke-linejoin:miter;stroke-miterlimit:4;stroke-dasharray:none;stroke-dashoffset:1.20000057;stroke-opacity:1"
         inkscape:original="M 27 11.5 C 25.619997 11.5 24.5 12.619997 24.5 14 C 24.5 14.183237 24.525021 14.359194 24.5625 14.53125 C 21.248692 14.683188 18.391149 16.518951 16.8125 19.21875 C 16.163117 18.76344 15.352746 18.5 14.5 18.5 C 14.154227 18.5 13.820085 18.573642 13.5 18.65625 C 13.504018 18.604511 13.5 18.552765 13.5 18.5 C 13.5 17.395997 12.604003 16.5 11.5 16.5 C 10.395997 16.5 9.4999998 17.395996 9.5 18.5 C 9.5 19.455653 10.165989 20.27106 11.0625 20.46875 C 10.712418 21.063082 10.5 21.760776 10.5 22.5 C 10.5 22.70146 10.533709 22.900261 10.5625 23.09375 C 9.9602283 22.730458 9.2541665 22.5 8.5 22.5 C 6.8835526 22.5 5.5056469 23.462793 4.875 24.84375 C 4.4167467 24.323207 3.7474993 24 3 24 C 1.6200014 24 0.49999998 25.120005 0.5 26.5 C 0.5 27.879994 1.6200014 29 3 29 C 3.7474993 29 4.4167467 28.676793 4.875 28.15625 C 5.505647 29.537206 6.8835529 30.499999 8.5 30.5 C 9.3765388 30.5 10.184417 30.197486 10.84375 29.71875 C 11.550079 31.623343 13.350649 33 15.5 33 C 16.919591 33 18.183331 32.388645 19.09375 31.4375 C 20.717472 32.732721 22.763047 33.5 25 33.5 C 27.934178 33.5 30.569428 32.154918 32.3125 30.0625 C 33.289388 30.950443 34.576875 31.5 36 31.5 C 37.549626 31.5 38.937507 30.844777 39.9375 29.8125 C 40.516678 30.236992 41.227414 30.5 42 30.5 C 43.086749 30.5 44.04538 29.996717 44.6875 29.21875 C 44.941606 29.686327 45.43075 30 46 30 C 46.827999 30 47.500002 29.328003 47.5 28.5 C 47.5 27.671996 46.827998 27.000001 46 27 C 45.8275 27 45.654292 27.040082 45.5 27.09375 C 45.500816 27.062682 45.5 27.031264 45.5 27 C 45.5 25.067993 43.931997 23.5 42 23.5 C 41.64465 23.5 41.29198 23.557651 40.96875 23.65625 C 40.261246 22.164952 38.891932 21.042815 37.25 20.65625 C 37.401875 20.297374 37.5 19.914001 37.5 19.5 C 37.5 17.843997 36.156003 16.5 34.5 16.5 C 33.52101 16.5 32.641436 16.961292 32.09375 17.6875 C 31.254049 16.746697 30.21396 15.985374 29.0625 15.4375 C 29.340986 15.034361 29.5 14.526701 29.5 14 C 29.5 12.619997 28.380002 11.5 27 11.5 z "
         inkscape:radius="0.49410588"
         sodipodi:type="inkscape:offset" />
      <path
         id="path2077"
         d="M 27 9.5 C 25.619997 9.5 24.5 10.619997 24.5 12 C 24.5 12.183237 24.525021 12.359194 24.5625 12.53125 C 21.248692 12.683188 18.391149 14.518951 16.8125 17.21875 C 16.163117 16.76344 15.352746 16.5 14.5 16.5 C 14.154227 16.5 13.820085 16.573642 13.5 16.65625 C 13.504018 16.604511 13.5 16.552765 13.5 16.5 C 13.5 15.395997 12.604003 14.5 11.5 14.5 C 10.395997 14.5 9.4999998 15.395996 9.5 16.5 C 9.5 17.455653 10.165989 18.27106 11.0625 18.46875 C 10.712418 19.063082 10.5 19.760776 10.5 20.5 C 10.5 20.70146 10.533709 20.900261 10.5625 21.09375 C 9.9602283 20.730458 9.2541665 20.5 8.5 20.5 C 6.8835526 20.5 5.5056469 21.462793 4.875 22.84375 C 4.4167467 22.323207 3.7474993 22 3 22 C 1.6200014 22 0.49999998 23.120005 0.5 24.5 C 0.5 25.879994 1.6200014 27 3 27 C 3.7474993 27 4.4167467 26.676793 4.875 26.15625 C 5.505647 27.537206 6.8835529 28.499999 8.5 28.5 C 9.3765388 28.5 10.184417 28.197486 10.84375 27.71875 C 11.550079 29.623343 13.350649 31 15.5 31 C 16.919591 31 18.183331 30.388645 19.09375 29.4375 C 20.717472 30.732721 22.763047 31.5 25 31.5 C 27.934178 31.5 30.569428 30.154918 32.3125 28.0625 C 33.289388 28.950443 34.576875 29.5 36 29.5 C 37.549626 29.5 38.937507 28.844777 39.9375 27.8125 C 40.516678 28.236992 41.227414 28.5 42 28.5 C 43.086749 28.5 44.04538 27.996717 44.6875 27.21875 C 44.941606 27.686327 45.43075 28 46 28 C 46.827999 28 47.500002 27.328003 47.5 26.5 C 47.5 25.671996 46.827998 25.000001 46 25 C 45.8275 25 45.654292 25.040082 45.5 25.09375 C 45.500816 25.062682 45.5 25.031264 45.5 25 C 45.5 23.067993 43.931997 21.5 42 21.5 C 41.64465 21.5 41.29198 21.557651 40.96875 21.65625 C 40.261246 20.164952 38.891932 19.042815 37.25 18.65625 C 37.401875 18.297374 37.5 17.914001 37.5 17.5 C 37.5 15.843997 36.156003 14.5 34.5 14.5 C 33.52101 14.5 32.641436 14.961292 32.09375 15.6875 C 31.254049 14.746697 30.21396 13.985374 29.0625 13.4375 C 29.340986 13.034361 29.5 12.526701 29.5 12 C 29.5 10.619997 28.380002 9.4999998 27 9.5 z "
         style="fill:url(#radialGradient3080);fill-opacity:1;stroke:#729fcf;stroke-width:1;stroke-linecap:round;stroke-linejoin:miter;stroke-miterlimit:4;stroke-dasharray:none;stroke-dashoffset:1.20000057000000000;stroke-opacity:1" />
      <path
         d="M 27,10.5 C 26.156465,10.5 25.5,11.156465 25.5,12 C 25.5,12.092976 25.50416,12.188136 25.53125,12.3125 C 25.599662,12.602706 25.53386,12.908291 25.352069,13.14462 C 25.170277,13.380949 24.891794,13.522934 24.59375,13.53125 C 21.61892,13.667646 19.070587,15.299957 17.65625,17.71875 C 17.516359,17.9526 17.286398,18.118576 17.020389,18.177689 C 16.75438,18.236802 16.475767,18.183842 16.25,18.03125 C 15.770897,17.695331 15.14854,17.5 14.5,17.5 C 14.295007,17.5 14.046475,17.548485 13.75,17.625 C 13.439105,17.709891 13.106348,17.638402 12.857752,17.433311 C 12.609157,17.22822 12.475736,16.915112 12.5,16.59375 C 12.496116,16.643763 12.5,16.6031 12.5,16.5 C 12.5,15.932464 12.067536,15.5 11.5,15.5 C 10.932464,15.5 10.5,15.932463 10.5,16.5 C 10.5,16.995 10.843784,17.403534 11.28125,17.5 C 11.587691,17.572738 11.841354,17.786727 11.964676,18.076534 C 12.087998,18.366341 12.066313,18.6975 11.90625,18.96875 C 11.639373,19.421825 11.5,19.950719 11.5,20.5 C 11.5,20.590858 11.500429,20.730366 11.53125,20.9375 C 11.582904,21.310754 11.418541,21.681032 11.107069,21.893098 C 10.795598,22.105164 10.390845,22.122369 10.0625,21.9375 C 9.5949003,21.655443 9.0521757,21.5 8.5,21.5 C 7.2772644,21.5 6.2575344,22.207058 5.78125,23.25 C 5.6442521,23.560787 5.3577227,23.779837 5.0218842,23.83053 C 4.6860457,23.881222 4.3476268,23.756504 4.125,23.5 C 3.8486099,23.186041 3.4616896,23 3,23 C 2.156475,23 1.5,23.656478 1.5,24.5 C 1.5,25.34352 2.1564755,26 3,26 C 3.4616896,26 3.8486099,25.813959 4.125,25.5 C 4.3476268,25.243496 4.6860457,25.118778 5.0218842,25.16947 C 5.3577227,25.220163 5.6442521,25.439213 5.78125,25.75 C 6.2575344,26.792941 7.2772644,27.499999 8.5,27.5 C 9.1484093,27.5 9.7415688,27.275418 10.25,26.90625 C 10.503337,26.716531 10.832019,26.659142 11.134657,26.751787 C 11.437295,26.844431 11.677528,27.075977 11.78125,27.375 C 12.350723,28.910566 13.774024,30 15.5,30 C 16.634924,30 17.634751,29.523362 18.375,28.75 C 18.729708,28.372638 19.315078,28.331798 19.71875,28.65625 C 21.174345,29.817358 22.989774,30.5 25,30.5 C 27.631159,30.5 30.000233,29.312877 31.5625,27.4375 C 31.735815,27.237408 31.98194,27.11492 32.246071,27.097312 C 32.510201,27.079703 32.770408,27.168435 32.96875,27.34375 C 33.77545,28.077001 34.832131,28.5 36,28.5 C 37.270134,28.5 38.391865,27.97858 39.21875,27.125 C 39.561188,26.756403 40.125391,26.702669 40.53125,27 C 40.955984,27.311297 41.452438,27.5 42,27.5 C 42.78063,27.5 43.470137,27.159989 43.9375,26.59375 C 44.147434,26.344364 44.46653,26.214088 44.791018,26.245289 C 45.115506,26.276489 45.403932,26.465181 45.5625,26.75 C 45.650536,26.911994 45.794985,27 46,27 C 46.29153,27 46.500001,26.791531 46.5,26.5 C 46.5,26.208466 46.291531,26 46,26 C 45.981092,26 45.894002,26.002901 45.8125,26.03125 C 45.504461,26.136774 45.164246,26.084347 44.902267,25.890981 C 44.640288,25.697616 44.489934,25.387956 44.5,25.0625 C 44.4999,25.066314 44.5,25.048517 44.5,25 C 44.5,23.604463 43.395528,22.5 42,22.5 C 41.75189,22.5 41.483882,22.522406 41.25,22.59375 C 40.78506,22.74199 40.281376,22.529913 40.0625,22.09375 C 39.484792,20.87604 38.376244,19.941656 37.03125,19.625 C 36.748638,19.557964 36.509627,19.370391 36.377332,19.111815 C 36.245038,18.85324 36.232763,18.549662 36.34375,18.28125 C 36.45659,18.014613 36.5,17.757331 36.5,17.5 C 36.5,16.380466 35.619534,15.5 34.5,15.5 C 33.832472,15.5 33.236937,15.801337 32.875,16.28125 C 32.696154,16.518055 32.420653,16.662315 32.124147,16.674417 C 31.827641,16.686519 31.5413,16.565192 31.34375,16.34375 C 30.597946,15.508149 29.663841,14.838039 28.625,14.34375 C 28.361992,14.216445 28.16852,13.979622 28.096235,13.696507 C 28.02395,13.413391 28.080212,13.112806 28.25,12.875 C 28.407563,12.64691 28.5,12.327139 28.5,12 C 28.5,11.156466 27.843533,10.5 27,10.5 z "
         id="path3072"
         style="fill:none;fill-opacity:1;stroke:white;stroke-width:1;stroke-linecap:round;stroke-linejoin:miter;stroke-miterlimit:4;stroke-dasharray:none;stroke-dashoffset:1.20000057;stroke-opacity:1"
         inkscape:original="M 27 9.5 C 25.619997 9.5 24.5 10.619997 24.5 12 C 24.5 12.183237 24.525021 12.359194 24.5625 12.53125 C 21.248692 12.683188 18.391149 14.518951 16.8125 17.21875 C 16.163117 16.76344 15.352746 16.5 14.5 16.5 C 14.154227 16.5 13.820085 16.573642 13.5 16.65625 C 13.504018 16.604511 13.5 16.552765 13.5 16.5 C 13.5 15.395997 12.604003 14.5 11.5 14.5 C 10.395997 14.5 9.4999998 15.395996 9.5 16.5 C 9.5 17.455653 10.165989 18.27106 11.0625 18.46875 C 10.712418 19.063082 10.5 19.760776 10.5 20.5 C 10.5 20.70146 10.533709 20.900261 10.5625 21.09375 C 9.9602283 20.730458 9.2541665 20.5 8.5 20.5 C 6.8835526 20.5 5.5056469 21.462793 4.875 22.84375 C 4.4167467 22.323207 3.7474993 22 3 22 C 1.6200014 22 0.49999998 23.120005 0.5 24.5 C 0.5 25.879994 1.6200014 27 3 27 C 3.7474993 27 4.4167467 26.676793 4.875 26.15625 C 5.505647 27.537206 6.8835529 28.499999 8.5 28.5 C 9.3765388 28.5 10.184417 28.197486 10.84375 27.71875 C 11.550079 29.623343 13.350649 31 15.5 31 C 16.919591 31 18.183331 30.388645 19.09375 29.4375 C 20.717472 30.732721 22.763047 31.5 25 31.5 C 27.934178 31.5 30.569428 30.154918 32.3125 28.0625 C 33.289388 28.950443 34.576875 29.5 36 29.5 C 37.549626 29.5 38.937507 28.844777 39.9375 27.8125 C 40.516678 28.236992 41.227414 28.5 42 28.5 C 43.086749 28.5 44.04538 27.996717 44.6875 27.21875 C 44.941606 27.686327 45.43075 28 46 28 C 46.827999 28 47.500002 27.328003 47.5 26.5 C 47.5 25.671996 46.827998 25.000001 46 25 C 45.8275 25 45.654292 25.040082 45.5 25.09375 C 45.500816 25.062682 45.5 25.031264 45.5 25 C 45.5 23.067993 43.931997 21.5 42 21.5 C 41.64465 21.5 41.29198 21.557651 40.96875 21.65625 C 40.261246 20.164952 38.891932 19.042815 37.25 18.65625 C 37.401875 18.297374 37.5 17.914001 37.5 17.5 C 37.5 15.843997 36.156003 14.5 34.5 14.5 C 33.52101 14.5 32.641436 14.961292 32.09375 15.6875 C 31.254049 14.746697 30.21396 13.985374 29.0625 13.4375 C 29.340986 13.034361 29.5 12.526701 29.5 12 C 29.5 10.619997 28.380002 9.4999998 27 9.5 z "
         inkscape:radius="-0.99151278"
         sodipodi:type="inkscape:offset" />
      <path
         sodipodi:nodetypes="cszcz"
         id="path2877"
         d="M 33.389716,44.5 C 33.149282,45.604 32.058148,46.5 30.954148,46.5 C 29.850148,46.5 29.149282,45.604 29.389716,44.5 C 29.630149,43.396001 32.687939,38.502148 32.69642,38.500001 C 32.706917,38.500001 33.630149,43.396001 33.389716,44.5 z"
         style="fill:url(#radialGradient5887);fill-opacity:1;stroke:#729fcf;stroke-width:0.99999988;stroke-linecap:round;stroke-linejoin:miter;stroke-miterlimit:4;stroke-dashoffset:1.20000057;stroke-opacity:1" />
      <path
         sodipodi:nodetypes="cszcz"
         id="path2898"
         d="M 31.417714,44.684035 C 31.150717,45.400777 30.687082,45.773398 30.286848,45.773398 C 29.886613,45.773398 29.717527,45.355314 29.967589,44.684035 C 30.223274,43.997658 32.829047,38.941171 32.832634,38.93934 C 32.836439,38.93934 31.690335,43.952198 31.417714,44.684035 z"
         style="fill:url(#linearGradient5884);fill-opacity:1;stroke:none;stroke-width:0.99999988;stroke-linecap:round;stroke-linejoin:miter;stroke-miterlimit:4;stroke-dashoffset:1.20000057;stroke-opacity:1" />
      <path
         sodipodi:nodetypes="cszcz"
         id="path3044"
         d="M 27.857836,39.577886 C 27.66815,40.448867 26.927154,41.15575 26.203828,41.15575 C 25.480502,41.15575 25.047402,40.448867 25.237088,39.577886 C 25.426774,38.706906 27.572745,34.845989 27.578364,34.844295 C 27.585241,34.844295 28.047522,38.706906 27.857836,39.577886 z"
         style="fill:url(#radialGradient5881);fill-opacity:1;stroke:#729fcf;stroke-width:1.00000083;stroke-linecap:round;stroke-linejoin:miter;stroke-miterlimit:4;stroke-dashoffset:1.20000057;stroke-opacity:1" />
      <path
         sodipodi:nodetypes="cszcz"
         id="path3046"
         d="M 26.557727,39.755158 C 26.358496,40.330497 26.038379,40.629605 25.77157,40.629605 C 25.50476,40.629605 25.404432,40.294004 25.591026,39.755158 C 25.781816,39.204193 27.668767,35.145279 27.671212,35.143809 C 27.673749,35.143809 26.761154,39.167702 26.557727,39.755158 z"
         style="fill:url(#linearGradient5878);fill-opacity:1;stroke:none;stroke-width:0.99999988;stroke-linecap:round;stroke-linejoin:miter;stroke-miterlimit:4;stroke-dashoffset:1.20000057;stroke-opacity:1" />
      <path
         sodipodi:nodetypes="cszcz"
         id="path3122"
         d="M 21.043071,41.5 C 20.802637,42.604 19.711503,43.5 18.607503,43.5 C 17.503503,43.5 16.802637,42.604 17.043071,41.5 C 17.283504,40.396001 20.341294,35.502148 20.349775,35.500001 C 20.360272,35.500001 21.283504,40.396001 21.043071,41.5 z"
         style="fill:url(#radialGradient5873);fill-opacity:1;stroke:#729fcf;stroke-width:0.99999988;stroke-linecap:round;stroke-linejoin:miter;stroke-miterlimit:4;stroke-dashoffset:1.20000057;stroke-opacity:1" />
      <path
         sodipodi:nodetypes="cszcz"
         id="path3124"
         d="M 19.047377,40.961518 C 18.863256,41.45578 18.543536,41.712738 18.267536,41.712738 C 17.991536,41.712738 17.874935,41.424429 18.047377,40.961518 C 18.223696,40.488195 20.020626,37.001263 20.023099,37 C 20.025723,37 19.235374,40.456846 19.047377,40.961518 z"
         style="fill:url(#linearGradient5870);fill-opacity:1;stroke:none;stroke-width:0.99999988;stroke-linecap:round;stroke-linejoin:miter;stroke-miterlimit:4;stroke-dashoffset:1.20000057;stroke-opacity:1" />
      <path
         sodipodi:nodetypes="cszcz"
         id="path3134"
         d="M 40.520019,38.772322 C 40.299279,39.855282 39.436977,40.734206 38.595237,40.734206 C 37.753496,40.734206 37.249495,39.855282 37.470234,38.772322 C 37.690974,37.689363 40.188258,32.888777 40.194796,32.886671 C 40.2028,32.886671 40.740758,37.689363 40.520019,38.772322 z"
         style="fill:url(#radialGradient5895);fill-opacity:1;stroke:#729fcf;stroke-width:1.00000083;stroke-linecap:round;stroke-linejoin:miter;stroke-miterlimit:4;stroke-dashoffset:1.20000057;stroke-opacity:1" />
      <path
         sodipodi:nodetypes="cszcz"
         id="path3136"
         d="M 39.008949,38.846201 C 38.791726,39.516442 38.442701,39.864889 38.151797,39.864889 C 37.860894,39.864889 37.751506,39.473929 37.95495,38.846201 C 38.16297,38.204353 40.220323,33.475912 40.222989,33.474199 C 40.225755,33.474199 39.230746,38.161842 39.008949,38.846201 z"
         style="fill:url(#linearGradient5892);fill-opacity:1;stroke:none;stroke-width:0.99999988;stroke-linecap:round;stroke-linejoin:miter;stroke-miterlimit:4;stroke-dashoffset:1.20000057;stroke-opacity:1" />
      <path
         sodipodi:nodetypes="cszcz"
         id="path3144"
         d="M 9.7715003,38.211526 C 9.6258551,38.880284 9.0569023,39.423045 8.5015163,39.423045 C 7.9461303,39.423045 7.6135871,38.880284 7.7592323,38.211526 C 7.9048774,37.542769 9.5526018,34.578274 9.5569162,34.576973 C 9.5621969,34.576973 9.917145,37.542769 9.7715003,38.211526 z"
         style="fill:url(#radialGradient5867);fill-opacity:1;stroke:#729fcf;stroke-width:1.00000072;stroke-linecap:round;stroke-linejoin:miter;stroke-miterlimit:4;stroke-dashoffset:1.20000057;stroke-opacity:1" />
      <path
         sodipodi:nodetypes="cszcz"
         id="path3146"
         d="M 8.7795756,37.885336 C 8.6758965,38.18474 8.5093089,38.340394 8.3704624,38.340394 C 8.2316159,38.340394 8.1794059,38.165749 8.2765086,37.885336 C 8.3757948,37.598617 9.3577564,35.486376 9.3590288,35.485611 C 9.3603488,35.485611 8.8854379,37.579627 8.7795756,37.885336 z"
         style="fill:url(#linearGradient5864);fill-opacity:1;stroke:none;stroke-width:0.99999988;stroke-linecap:round;stroke-linejoin:miter;stroke-miterlimit:4;stroke-dashoffset:1.20000057;stroke-opacity:1" />
      <path
         sodipodi:nodetypes="cszcz"
         id="path3154"
         d="M 12.247011,45.211526 C 12.101366,45.880284 11.532413,46.423045 10.977027,46.423045 C 10.421641,46.423045 10.089098,45.880284 10.234743,45.211526 C 10.380388,44.542769 12.028112,41.578274 12.032427,41.576973 C 12.037707,41.576973 12.392656,44.542769 12.247011,45.211526 z"
         style="fill:url(#radialGradient5861);fill-opacity:1;stroke:#729fcf;stroke-width:1.00000072;stroke-linecap:round;stroke-linejoin:miter;stroke-miterlimit:4;stroke-dashoffset:1.20000057;stroke-opacity:1" />
      <path
         sodipodi:nodetypes="cszcz"
         id="path3156"
         d="M 11.255086,44.885336 C 11.151407,45.18474 10.984819,45.340394 10.845973,45.340394 C 10.707126,45.340394 10.654916,45.165749 10.752019,44.885336 C 10.851305,44.598617 11.833267,42.486376 11.834539,42.485611 C 11.835859,42.485611 11.360949,44.579627 11.255086,44.885336 z"
         style="fill:url(#linearGradient5858);fill-opacity:1;stroke:none;stroke-width:0.99999988;stroke-linecap:round;stroke-linejoin:miter;stroke-miterlimit:4;stroke-dashoffset:1.20000057;stroke-opacity:1" />
    </g>
  </g>
</svg>
