<?xml version="1.0" encoding="UTF-8" standalone="no"?>
<!-- Created with Inkscape (http://www.inkscape.org/) -->
<svg
   xmlns:dc="http://purl.org/dc/elements/1.1/"
   xmlns:cc="http://creativecommons.org/ns#"
   xmlns:rdf="http://www.w3.org/1999/02/22-rdf-syntax-ns#"
   xmlns:svg="http://www.w3.org/2000/svg"
   xmlns="http://www.w3.org/2000/svg"
   xmlns:xlink="http://www.w3.org/1999/xlink"
   xmlns:sodipodi="http://sodipodi.sourceforge.net/DTD/sodipodi-0.dtd"
   xmlns:inkscape="http://www.inkscape.org/namespaces/inkscape"
   width="48px"
   height="48px"
   id="svg1306"
   sodipodi:version="0.32"
   inkscape:version="0.46"
   sodipodi:docbase="/home/dobey/Projects/gnome-icon-theme/scalable/status"
   sodipodi:docname="weather-sunshowers.svg"
   inkscape:output_extension="org.inkscape.output.svg.inkscape"
   inkscape:export-filename="C:\icons\Tango\gnome-icon-theme-2.23.92\48x48\status\weather-sunshowers.png"
   inkscape:export-xdpi="90"
   inkscape:export-ydpi="90">
  <defs
     id="defs1308">
    <linearGradient
       inkscape:collect="always"
       id="linearGradient3512">
      <stop
         style="stop-color:white;stop-opacity:1;"
         offset="0"
         id="stop3514" />
      <stop
         style="stop-color:white;stop-opacity:0;"
         offset="1"
         id="stop3516" />
    </linearGradient>
    <linearGradient
       inkscape:collect="always"
       id="linearGradient3502">
      <stop
         style="stop-color:white;stop-opacity:1;"
         offset="0"
         id="stop3504" />
      <stop
         style="stop-color:white;stop-opacity:0;"
         offset="1"
         id="stop3506" />
    </linearGradient>
    <linearGradient
       inkscape:collect="always"
       id="linearGradient3486">
      <stop
         style="stop-color:white;stop-opacity:1;"
         offset="0"
         id="stop3488" />
      <stop
         style="stop-color:white;stop-opacity:0;"
         offset="1"
         id="stop3490" />
    </linearGradient>
    <linearGradient
       inkscape:collect="always"
       id="linearGradient3453">
      <stop
         style="stop-color:white;stop-opacity:1;"
         offset="0"
         id="stop3455" />
      <stop
         style="stop-color:white;stop-opacity:0;"
         offset="1"
         id="stop3457" />
    </linearGradient>
    <linearGradient
       id="linearGradient3551">
      <stop
         style="stop-color:white;stop-opacity:1"
         offset="0"
         id="stop3553" />
      <stop
         style="stop-color:#729fcf;stop-opacity:0"
         offset="1"
         id="stop3555" />
    </linearGradient>
    <linearGradient
       id="linearGradient2810">
      <stop
         style="stop-color:#b3adf0;stop-opacity:1;"
         offset="0"
         id="stop2812" />
      <stop
         style="stop-color:#555753;stop-opacity:1"
         offset="1"
         id="stop2814" />
    </linearGradient>
    <linearGradient
       inkscape:collect="always"
       id="linearGradient3494">
      <stop
         style="stop-color:#729fcf;stop-opacity:1;"
         offset="0"
         id="stop3496" />
      <stop
         style="stop-color:#729fcf;stop-opacity:0;"
         offset="1"
         id="stop3498" />
    </linearGradient>
    <linearGradient
       inkscape:collect="always"
       id="linearGradient3478">
      <stop
         style="stop-color:#729fcf;stop-opacity:1;"
         offset="0"
         id="stop3480" />
      <stop
         style="stop-color:#729fcf;stop-opacity:0;"
         offset="1"
         id="stop3482" />
    </linearGradient>
    <linearGradient
       inkscape:collect="always"
       id="linearGradient3470">
      <stop
         style="stop-color:#729fcf;stop-opacity:1;"
         offset="0"
         id="stop3472" />
      <stop
         style="stop-color:#729fcf;stop-opacity:0;"
         offset="1"
         id="stop3474" />
    </linearGradient>
    <linearGradient
       inkscape:collect="always"
       id="linearGradient5191">
      <stop
         style="stop-color:#dadad9;stop-opacity:1;"
         offset="0"
         id="stop5193" />
      <stop
         style="stop-color:#dadad9;stop-opacity:0;"
         offset="1"
         id="stop5195" />
    </linearGradient>
    <linearGradient
       inkscape:collect="always"
       id="linearGradient5138">
      <stop
         style="stop-color:white;stop-opacity:1;"
         offset="0"
         id="stop5140" />
      <stop
         style="stop-color:white;stop-opacity:0;"
         offset="1"
         id="stop5142" />
    </linearGradient>
    <linearGradient
       id="linearGradient5199">
      <stop
         style="stop-color:#7e7878;stop-opacity:0.09708738;"
         offset="0"
         id="stop5201" />
      <stop
         style="stop-color:#7e7878;stop-opacity:1;"
         offset="1"
         id="stop5203" />
    </linearGradient>
    <linearGradient
       id="linearGradient5154">
      <stop
         style="stop-color:#d9d8d6;stop-opacity:1;"
         offset="0"
         id="stop5156" />
      <stop
         style="stop-color:#b5b4b0;stop-opacity:1;"
         offset="1"
         id="stop5158" />
    </linearGradient>
    <linearGradient
       id="linearGradient2851">
      <stop
         id="stop2853"
         offset="0"
         style="stop-color:#babdb6;stop-opacity:1" />
      <stop
         style="stop-color:#babdb6;stop-opacity:1;"
         offset="0.46763366"
         id="stop2855" />
      <stop
         id="stop2857"
         offset="1"
         style="stop-color:#555753;stop-opacity:1" />
    </linearGradient>
    <linearGradient
       inkscape:collect="always"
       id="linearGradient5164">
      <stop
         style="stop-color:white;stop-opacity:1;"
         offset="0"
         id="stop5166" />
      <stop
         style="stop-color:white;stop-opacity:0;"
         offset="1"
         id="stop5168" />
    </linearGradient>
    <inkscape:perspective
       sodipodi:type="inkscape:persp3d"
       inkscape:vp_x="0 : 24 : 1"
       inkscape:vp_y="0 : 1000 : 0"
       inkscape:vp_z="48 : 24 : 1"
       inkscape:persp3d-origin="24 : 16 : 1"
       id="perspective5509" />
    <linearGradient
       inkscape:collect="always"
       id="linearGradient5150">
      <stop
         style="stop-color:white;stop-opacity:1;"
         offset="0"
         id="stop5152" />
      <stop
         style="stop-color:white;stop-opacity:0;"
         offset="1"
         id="stop5154" />
    </linearGradient>
    <linearGradient
       id="linearGradient5142">
      <stop
         style="stop-color:#f1ff74;stop-opacity:1;"
         offset="0"
         id="stop5144" />
      <stop
         style="stop-color:#ffc10f;stop-opacity:1;"
         offset="1"
         id="stop5146" />
    </linearGradient>
    <linearGradient
       id="linearGradient5134">
      <stop
         style="stop-color:#ffdf1a;stop-opacity:1;"
         offset="0"
         id="stop5136" />
      <stop
         style="stop-color:#fff9ce;stop-opacity:1;"
         offset="1"
         id="stop5138" />
    </linearGradient>
    <linearGradient
       inkscape:collect="always"
       id="linearGradient5125">
      <stop
         style="stop-color:#ffc10f;stop-opacity:1;"
         offset="0"
         id="stop5127" />
      <stop
         style="stop-color:#ffc10f;stop-opacity:0;"
         offset="1"
         id="stop5129" />
    </linearGradient>
    <linearGradient
       id="linearGradient5115">
      <stop
         style="stop-color:white;stop-opacity:0;"
         offset="0"
         id="stop5117" />
      <stop
         id="stop5123"
         offset="0.83783782"
         style="stop-color:#f6e97f;stop-opacity:0.35922331;" />
      <stop
         style="stop-color:#edd400;stop-opacity:1;"
         offset="1"
         id="stop5119" />
    </linearGradient>
    <linearGradient
       id="linearGradient5101">
      <stop
         style="stop-color:white;stop-opacity:1;"
         offset="0"
         id="stop5103" />
      <stop
         style="stop-color:#edd400;stop-opacity:0.1262136;"
         offset="1"
         id="stop5105" />
    </linearGradient>
    <radialGradient
       inkscape:collect="always"
       xlink:href="#linearGradient5101"
       id="radialGradient5107"
       cx="23.142857"
       cy="24.285715"
       fx="23.142857"
       fy="24.285715"
       r="23.142857"
       gradientUnits="userSpaceOnUse" />
    <radialGradient
       inkscape:collect="always"
       xlink:href="#linearGradient5115"
       id="radialGradient5121"
       cx="21.895287"
       cy="23.886944"
       fx="21.895287"
       fy="23.886944"
       r="23.398855"
       gradientTransform="matrix(1,0,0,1.01674,0,-0.39987)"
       gradientUnits="userSpaceOnUse" />
    <radialGradient
       inkscape:collect="always"
       xlink:href="#linearGradient5125"
       id="radialGradient5131"
       cx="23.071428"
       cy="23.142857"
       fx="23.071428"
       fy="23.142857"
       r="22.825405"
       gradientUnits="userSpaceOnUse" />
    <linearGradient
       inkscape:collect="always"
       xlink:href="#linearGradient5134"
       id="linearGradient5140"
       x1="20.908642"
       y1="52.221584"
       x2="15.422572"
       y2="-4.3302984"
       gradientUnits="userSpaceOnUse" />
    <radialGradient
       inkscape:collect="always"
       xlink:href="#linearGradient5142"
       id="radialGradient5148"
       cx="23.071423"
       cy="30.798319"
       fx="23.071423"
       fy="30.798319"
       r="22.856438"
       gradientUnits="userSpaceOnUse"
       gradientTransform="matrix(1.421498,0,0,1.421498,-9.724552,-9.754659)" />
    <radialGradient
       inkscape:collect="always"
       xlink:href="#linearGradient5150"
       id="radialGradient5156"
       cx="25.245258"
       cy="25.618958"
       fx="25.245258"
       fy="25.618958"
       r="14.760339"
       gradientTransform="matrix(-2.0671873e-8,-1.634458,2.554982,-3.149041e-8,-41.455974,54.913134)"
       gradientUnits="userSpaceOnUse" />
    <radialGradient
       inkscape:collect="always"
       xlink:href="#linearGradient5164"
       id="radialGradient6355"
       gradientUnits="userSpaceOnUse"
       cx="23.688078"
       cy="23.42804"
       fx="23.688078"
       fy="23.42804"
       r="22.45064" />
    <radialGradient
       inkscape:collect="always"
       xlink:href="#linearGradient5154"
       id="radialGradient6359"
       gradientUnits="userSpaceOnUse"
       gradientTransform="matrix(1.440625,0,0,1.440625,-10.16586,-3.037035)"
       cx="23.071428"
       cy="6.8925552"
       fx="23.071428"
       fy="6.8925552"
       r="22.812965" />
    <radialGradient
       inkscape:collect="always"
       xlink:href="#linearGradient5138"
       id="radialGradient6363"
       gradientUnits="userSpaceOnUse"
       gradientTransform="matrix(3.373032,0,0,3.373032,-54.74925,-26.13148)"
       cx="23.071428"
       cy="11.011853"
       fx="23.071428"
       fy="11.011853"
       r="22.856438" />
    <linearGradient
       inkscape:collect="always"
       xlink:href="#linearGradient3502"
       id="linearGradient6391"
       gradientUnits="userSpaceOnUse"
       gradientTransform="matrix(1,0,0,1.0010728,8.375,4.0345087)"
       x1="18.84375"
       y1="42"
       x2="18.8125"
       y2="44.46875" />
    <linearGradient
       inkscape:collect="always"
       xlink:href="#linearGradient3486"
       id="linearGradient6394"
       gradientUnits="userSpaceOnUse"
       gradientTransform="matrix(1,0,0,1.0010728,8.375,4.0345087)"
       x1="26.543989"
       y1="41.078823"
       x2="24"
       y2="43" />
    <linearGradient
       inkscape:collect="always"
       xlink:href="#linearGradient3453"
       id="linearGradient6397"
       gradientUnits="userSpaceOnUse"
       gradientTransform="matrix(1,0,0,1.0010728,8.375,4.0345087)"
       x1="32.877365"
       y1="40.593159"
       x2="37"
       y2="41.444485" />
    <radialGradient
       inkscape:collect="always"
       xlink:href="#linearGradient3551"
       id="radialGradient6400"
       gradientUnits="userSpaceOnUse"
       gradientTransform="matrix(0.8043877,-3.1277623e-7,8.7219267e-8,0.2247892,-34.800781,-11.52919)"
       cx="84.145058"
       cy="193.73959"
       fx="84.145058"
       fy="193.73959"
       r="14.096042" />
    <radialGradient
       inkscape:collect="always"
       xlink:href="#linearGradient2851"
       id="radialGradient6404"
       gradientUnits="userSpaceOnUse"
       gradientTransform="matrix(1.4302931,3.5629464e-5,0,0.7219572,-12.700735,7.4869185)"
       cx="30.352211"
       cy="23.121309"
       fx="30.352211"
       fy="23.121309"
       r="16.5" />
    <radialGradient
       inkscape:collect="always"
       xlink:href="#linearGradient2810"
       id="radialGradient6406"
       gradientUnits="userSpaceOnUse"
       gradientTransform="matrix(1,0,0,0.5475571,-52,-72.658348)"
       cx="84.907455"
       cy="194.3862"
       fx="84.907455"
       fy="194.3862"
       r="16.5" />
    <radialGradient
       inkscape:collect="always"
       xlink:href="#linearGradient2851"
       id="radialGradient6414"
       gradientUnits="userSpaceOnUse"
       gradientTransform="matrix(1.186004,-2.2147041e-2,1.097582e-2,0.590498,40.846619,3.7451503)"
       cx="19.160831"
       cy="10.574146"
       fx="19.160831"
       fy="10.574146"
       r="8.484375" />
    <radialGradient
       inkscape:collect="always"
       xlink:href="#linearGradient5191"
       id="radialGradient6428"
       gradientUnits="userSpaceOnUse"
       gradientTransform="matrix(1.498147,0,0,1.133137,76.89707,-6.3836142)"
       cx="22.288452"
       cy="34.537094"
       fx="22.288452"
       fy="34.537094"
       r="9.9375" />
    <radialGradient
       inkscape:collect="always"
       xlink:href="#linearGradient5199"
       id="radialGradient6432"
       gradientUnits="userSpaceOnUse"
       gradientTransform="matrix(1.652014,0,0,1.0905987,30.27016,2.0797055)"
       cx="24.125"
       cy="9.7349367"
       fx="24.125"
       fy="9.7349367"
       r="15.75" />
    <radialGradient
       inkscape:collect="always"
       xlink:href="#linearGradient2851"
       id="radialGradient6437"
       gradientUnits="userSpaceOnUse"
       gradientTransform="matrix(1.090165,-1.2526655e-2,5.362702e-3,0.4686944,44.103638,14.332436)"
       cx="10.255606"
       cy="17.808355"
       fx="10.255606"
       fy="17.808355"
       r="15" />
    <radialGradient
       inkscape:collect="always"
       xlink:href="#linearGradient3512"
       id="radialGradient6441"
       gradientUnits="userSpaceOnUse"
       gradientTransform="matrix(1,0,0,0.411765,0,16.02941)"
       cx="24.75"
       cy="27.25"
       fx="24.75"
       fy="27.25"
       r="4.25" />
    <linearGradient
       inkscape:collect="always"
       xlink:href="#linearGradient3470"
       id="linearGradient6443"
       gradientUnits="userSpaceOnUse"
       x1="32.432915"
       y1="40.30616"
       x2="36.463055"
       y2="41.516167" />
    <linearGradient
       inkscape:collect="always"
       xlink:href="#linearGradient3478"
       id="linearGradient6445"
       gradientUnits="userSpaceOnUse"
       x1="26.547571"
       y1="41.09753"
       x2="24.705214"
       y2="42.341362" />
    <linearGradient
       inkscape:collect="always"
       xlink:href="#linearGradient3494"
       id="linearGradient6447"
       gradientUnits="userSpaceOnUse"
       x1="20.823647"
       y1="39.516323"
       x2="18.995422"
       y2="42.367435" />
  </defs>
  <sodipodi:namedview
     id="base"
     pagecolor="#ffffff"
     bordercolor="#666"
     borderopacity="0.34117647"
     inkscape:pageopacity="0.0"
     inkscape:pageshadow="2"
     inkscape:zoom="1"
     inkscape:cx="24"
     inkscape:cy="21.55414"
     inkscape:current-layer="layer1"
     showgrid="false"
     inkscape:grid-bbox="true"
     inkscape:document-units="px"
     inkscape:window-width="822"
     inkscape:window-height="900"
     inkscape:window-x="479"
     inkscape:window-y="71"
     inkscape:showpageshadow="false" />
  <metadata
     id="metadata1311">
    <rdf:RDF>
      <cc:Work
         rdf:about="">
        <dc:format>image/svg+xml</dc:format>
        <dc:type
           rdf:resource="http://purl.org/dc/dcmitype/StillImage" />
        <cc:license
           rdf:resource="" />
      </cc:Work>
    </rdf:RDF>
  </metadata>
  <g
     id="layer1"
     inkscape:label="Layer 1"
     inkscape:groupmode="layer">
    <g
       id="g19373">
      <path
         transform="matrix(0.926398,0,0,0.926379,2.294983,1.325377)"
         d="M 46.285713 24.285715 A 23.142857 23.142857 0 1 1  0,24.285715 A 23.142857 23.142857 0 1 1  46.285713 24.285715 z"
         sodipodi:ry="23.142857"
         sodipodi:rx="23.142857"
         sodipodi:cy="24.285715"
         sodipodi:cx="23.142857"
         id="path4226"
         style="opacity:1;color:black;fill:url(#radialGradient5107);fill-opacity:1;fill-rule:evenodd;stroke:none;stroke-width:1;stroke-linecap:round;stroke-linejoin:miter;marker:none;marker-start:none;marker-mid:none;marker-end:none;stroke-miterlimit:4;stroke-dasharray:none;stroke-dashoffset:0;stroke-opacity:1;visibility:visible;display:inline;overflow:visible"
         sodipodi:type="arc" />
      <path
         transform="matrix(0.9138592,-0.3118325,0.3110024,0.9162971,-4.4799568,10.499991)"
         d="M 45.294142,35.650815 L 31.887448,31.859136 L 35.036916,45.43106 L 25.808424,34.993091 L 21.120389,48.113251 L 19.000079,34.342973 L 7.9629591,42.845811 L 13.624016,30.11519 L -0.25798184,31.301114 L 11.387095,23.652033 L -0.9323434,17.144522 L 12.999525,17.005509 L 6.1539794,4.8706506 L 17.949369,12.285842 L 18.751129,-1.6236314 L 24.665087,10.991494 L 32.8596,-0.27643573 L 31.014486,13.53341 L 44.000052,8.4845125 L 34.981677,19.10455 L 48.63547,21.877674 L 35.307105,25.936117 L 45.294142,35.650815 z"
         inkscape:randomized="0"
         inkscape:rounded="0"
         inkscape:flatsided="false"
         sodipodi:arg2="0.80919811"
         sodipodi:arg1="0.52359878"
         sodipodi:r2="12.137954"
         sodipodi:r1="25.152658"
         sodipodi:cy="23.074486"
         sodipodi:cx="23.511301"
         sodipodi:sides="11"
         id="path5113"
         style="opacity:0.66292138;fill:url(#radialGradient5121);fill-opacity:1;fill-rule:evenodd;stroke:none;stroke-width:1;stroke-linecap:round;stroke-linejoin:miter;marker:none;marker-start:none;marker-mid:none;marker-end:none;stroke-miterlimit:4;stroke-dasharray:none;stroke-dashoffset:0;stroke-opacity:1;visibility:visible;display:inline;overflow:visible"
         sodipodi:type="star" />
      <path
         transform="matrix(0.7451613,0,0,0.7451613,6.8080642,6.7548386)"
         d="M 45.214285,23.142857 A 22.142857,22.142857 0 1 1 0.9285717,23.142857 A 22.142857,22.142857 0 1 1 45.214285,23.142857 z"
         sodipodi:ry="22.142857"
         sodipodi:rx="22.142857"
         sodipodi:cy="23.142857"
         sodipodi:cx="23.071428"
         id="path1314"
         style="opacity:1;fill:url(#radialGradient5131);fill-opacity:1;fill-rule:evenodd;stroke:#ff9e1a;stroke-width:1.34199107;stroke-linecap:butt;stroke-linejoin:round;marker:none;marker-start:none;marker-mid:none;marker-end:none;stroke-miterlimit:4;stroke-dasharray:none;stroke-dashoffset:0;stroke-opacity:1;visibility:visible;display:inline;overflow:visible"
         sodipodi:type="arc" />
      <path
         transform="matrix(0.7,0,0,0.7,7.8499996,7.7999998)"
         d="M 45.214285,23.142857 A 22.142857,22.142857 0 1 1 0.9285717,23.142857 A 22.142857,22.142857 0 1 1 45.214285,23.142857 z"
         sodipodi:ry="22.142857"
         sodipodi:rx="22.142857"
         sodipodi:cy="23.142857"
         sodipodi:cx="23.071428"
         id="path2044"
         style="opacity:1;fill:url(#radialGradient5148);fill-opacity:1;fill-rule:evenodd;stroke:url(#linearGradient5140);stroke-width:1.42857143;stroke-linecap:butt;stroke-linejoin:round;marker:none;marker-start:none;marker-mid:none;marker-end:none;stroke-miterlimit:4;stroke-dasharray:none;stroke-dashoffset:0;stroke-opacity:1;visibility:visible;display:inline;overflow:visible"
         sodipodi:type="arc" />
      <path
         sodipodi:nodetypes="cssc"
         id="path2046"
         d="M 38.69419,20.487023 C 32.412922,15.811465 5.2302872,32.203201 9.6615271,19.250866 C 11.944455,12.577959 18.209137,9.0701559 23.610894,8.9495573 C 30.532014,8.7950377 36.600433,13.161557 38.69419,20.487023 z"
         style="opacity:0.73033711;fill:url(#radialGradient5156);fill-opacity:1;fill-rule:evenodd;stroke:none;stroke-width:1;stroke-linecap:butt;stroke-linejoin:round;marker:none;marker-start:none;marker-mid:none;marker-end:none;stroke-miterlimit:4;stroke-dashoffset:0;stroke-opacity:1;visibility:visible;display:inline;overflow:visible" />
      <path
         d="M 25,21.75 A 2.625,2.3125 0 1 1 19.75,21.75 A 2.625,2.3125 0 1 1 25,21.75 z"
         sodipodi:ry="2.3125"
         sodipodi:rx="2.625"
         sodipodi:cy="21.75"
         sodipodi:cx="22.375"
         id="path7044"
         style="opacity:0.71910113;fill:#dfdedc;fill-opacity:1;fill-rule:evenodd;stroke:none;stroke-width:1;stroke-linecap:round;stroke-linejoin:round;marker:none;marker-start:none;marker-mid:none;marker-end:none;stroke-miterlimit:4;stroke-dasharray:none;stroke-dashoffset:0;stroke-opacity:1;visibility:visible;display:inline;overflow:visible"
         sodipodi:type="arc"
         transform="matrix(0.398445,0.3761837,-0.217478,0.3885104,31.50244,6.2784835)" />
      <path
         inkscape:transform-center-x="2.0330157"
         inkscape:transform-center-y="1.5524728"
         transform="matrix(-9.424576e-2,0.2673945,-0.228734,-2.1890225e-2,38.6609,29.452338)"
         sodipodi:type="arc"
         style="opacity:0.71910113;fill:#dfdedc;fill-opacity:1;fill-rule:evenodd;stroke:none;stroke-width:1;stroke-linecap:round;stroke-linejoin:round;marker:none;marker-start:none;marker-mid:none;marker-end:none;stroke-miterlimit:4;stroke-dasharray:none;stroke-dashoffset:0;stroke-opacity:1;visibility:visible;display:inline;overflow:visible"
         id="path7046"
         sodipodi:cx="22.375"
         sodipodi:cy="21.75"
         sodipodi:rx="2.625"
         sodipodi:ry="2.3125"
         d="M 25,21.75 A 2.625,2.3125 0 1 1 19.75,21.75 A 2.625,2.3125 0 1 1 25,21.75 z" />
      <path
         d="M 25,21.75 A 2.625,2.3125 0 1 1 19.75,21.75 A 2.625,2.3125 0 1 1 25,21.75 z"
         sodipodi:ry="2.3125"
         sodipodi:rx="2.625"
         sodipodi:cy="21.75"
         sodipodi:cx="22.375"
         id="path7048"
         style="opacity:0.71910113;fill:#dfdedc;fill-opacity:1;fill-rule:evenodd;stroke:none;stroke-width:1;stroke-linecap:round;stroke-linejoin:round;marker:none;marker-start:none;marker-mid:none;marker-end:none;stroke-miterlimit:4;stroke-dasharray:none;stroke-dashoffset:0;stroke-opacity:1;visibility:visible;display:inline;overflow:visible"
         sodipodi:type="arc"
         transform="matrix(0.211478,0.1996625,-0.115428,0.2062058,34.19839,11.437282)"
         inkscape:transform-center-y="2.5514717"
         inkscape:transform-center-x="-0.61605544" />
      <g
         transform="matrix(1,0,0,1.0010728,8.375,4.0345087)"
         style="stroke:#729fcf;stroke-width:0.99946404"
         id="g8144">
        <path
           style="fill:none;fill-opacity:1;fill-rule:evenodd;stroke:url(#linearGradient6443);stroke-width:2.99839211;stroke-linecap:butt;stroke-linejoin:miter;stroke-miterlimit:4;stroke-dasharray:none;stroke-opacity:1"
           d="M 24.5,27.5 L 26.5,34.5 L 31.5,35.5 L 32.5,40.5 L 36.5,41.5"
           id="path8146"
           sodipodi:nodetypes="ccccc" />
        <path
           style="fill:none;fill-opacity:1;fill-rule:evenodd;stroke:url(#linearGradient6445);stroke-width:2.99839211;stroke-linecap:butt;stroke-linejoin:miter;stroke-miterlimit:4;stroke-dasharray:none;stroke-opacity:1"
           d="M 26.5,34.5 L 24.5,37.5 L 26.5,41 L 24.5,42.5"
           id="path8148"
           sodipodi:nodetypes="cccc" />
        <path
           sodipodi:nodetypes="cccc"
           style="fill:none;fill-opacity:1;fill-rule:evenodd;stroke:url(#linearGradient6447);stroke-width:2.99839211;stroke-linecap:butt;stroke-linejoin:miter;stroke-miterlimit:4;stroke-dasharray:none;stroke-opacity:1"
           d="M 24.5,37.5 L 22.5,39.5 L 20.5,39.5 L 18.5,42.5"
           id="path8150" />
      </g>
      <path
         sodipodi:nodetypes="csccccscscscssscscscscscscsssccsccsc"
         id="path7064"
         d="M 39,18.425631 C 38.1736,18.425631 37.5,19.125361 37.5,19.960216 C 37.5,20.158498 37.55624,20.31906 37.625,20.492616 C 36.02641,20.663379 34.74154,21.901776 34.53125,23.499158 C 33.30868,23.661592 32.29865,24.445953 31.8125,25.53482 C 31.57611,25.568055 31.34961,25.626227 31.125,25.691407 C 30.68779,24.962026 29.91027,24.470018 29,24.470018 C 27.7381,24.470018 26.70078,25.412849 26.53125,26.630954 C 26.20234,26.54319 25.85637,26.474356 25.5,26.474356 C 24.19328,26.474356 23.04261,27.099416 22.3125,28.071578 C 21.81127,27.692742 21.17569,27.47654 20.5,27.47654 C 19.44301,27.47654 18.53287,28.024898 18,28.854517 C 17.7355,28.616802 17.3816,28.447391 17,28.447391 C 16.1736,28.447391 15.5,29.147131 15.5,29.981985 C 15.5,30.81683 16.17359,31.485236 17,31.485236 C 17.23243,31.485236 17.45991,31.424261 17.65625,31.328648 C 18.02666,32.564423 19.14679,33.489594 20.5,33.489594 C 21.17779,33.489594 21.81048,33.244191 22.3125,32.863223 C 23.0417,33.846277 24.18471,34.491768 25.5,34.491768 C 26.62018,34.491768 27.61738,34.014767 28.34375,33.270359 C 29.24258,34.603338 30.775,35.493942 32.5,35.493942 C 33.99029,35.493942 35.30246,34.809098 36.21875,33.771446 C 36.67125,34.224942 37.31,34.491768 38,34.491768 C 39.01112,34.491768 39.88756,33.885949 40.28125,33.019811 C 40.787,33.305988 41.37816,33.489594 42,33.489594 C 43.03753,33.489594 43.95459,33.020782 44.59375,32.299509 C 44.86586,32.44079 45.17315,32.518734 45.5,32.518734 C 46.59755,32.518734 47.5,31.59128 47.5,30.483062 C 47.5,29.374835 46.59755,28.478704 45.5,28.478704 C 45.37311,28.478704 45.2453,28.518367 45.125,28.541351 C 44.76154,27.753417 44.14348,27.126726 43.34375,26.787542 C 43.43334,26.528995 43.5,26.262479 43.5,25.973269 C 43.5,24.741319 42.60081,23.740447 41.4375,23.530462 C 41.31276,22.515123 40.76495,21.64399 39.96875,21.087674 C 40.28736,20.810246 40.5,20.418156 40.5,19.960216 C 40.5,19.125361 39.82641,18.425631 39,18.425631 z"
         style="fill:url(#radialGradient6404);fill-opacity:1;stroke:url(#radialGradient6406);stroke-width:0.99999994;stroke-linecap:round;stroke-linejoin:miter;stroke-miterlimit:4;stroke-dasharray:none;stroke-dashoffset:1.20000057;stroke-opacity:1" />
      <path
         transform="matrix(1,0,0,1.0021757,0,-8.32841e-2)"
         d="M 39,19.46875 C 38.732027,19.46875 38.5,19.701415 38.5,20 C 38.5,20.009977 38.471465,20.005679 38.53125,20.15625 C 38.654762,20.446285 38.633,20.777769 38.472629,21.049167 C 38.312257,21.320565 38.032389,21.499532 37.71875,21.53125 C 36.566823,21.654028 35.650482,22.51565 35.5,23.65625 C 35.438393,24.094196 35.094196,24.438393 34.65625,24.5 C 33.775377,24.616786 33.068305,25.187532 32.71875,25.96875 C 32.572931,26.278571 32.277574,26.491228 31.9375,26.53125 C 31.772462,26.5544 31.611174,26.596905 31.40625,26.65625 C 30.975455,26.781767 30.51406,26.602336 30.28125,26.21875 C 30.009886,25.767027 29.553778,25.5 29,25.5 C 28.230866,25.5 27.602761,26.044494 27.5,26.78125 C 27.465813,27.062439 27.312996,27.315581 27.080103,27.476815 C 26.847209,27.638049 26.556477,27.691979 26.28125,27.625 C 25.994853,27.548742 25.729006,27.5 25.5,27.5 C 24.508759,27.5 23.645666,27.954205 23.09375,28.6875 C 22.762807,29.11376 22.15174,29.197088 21.71875,28.875 C 21.394432,28.630408 20.964657,28.5 20.5,28.5 C 19.785164,28.5 19.206147,28.843256 18.84375,29.40625 C 18.689557,29.654462 18.43373,29.822023 18.144582,29.86419 C 17.855434,29.906358 17.562409,29.818838 17.34375,29.625 C 17.232196,29.524958 17.08881,29.46875 17,29.46875 C 16.732027,29.46875 16.5,29.701415 16.5,30 C 16.5,30.298584 16.707032,30.5 17,30.5 C 17.059414,30.5 17.144167,30.473743 17.21875,30.4375 C 17.481881,30.313879 17.786008,30.311967 18.050673,30.432269 C 18.315338,30.552571 18.513871,30.782966 18.59375,31.0625 C 18.84495,31.89873 19.597701,32.5 20.5,32.5 C 20.939017,32.500001 21.37299,32.35557 21.71875,32.09375 C 22.15174,31.771662 22.762807,31.85499 23.09375,32.28125 C 23.65097,33.03082 24.508384,33.5 25.5,33.5 C 26.339336,33.5 27.067744,33.163599 27.625,32.59375 C 27.831457,32.379109 28.123459,32.268636 28.420289,32.292867 C 28.717119,32.317098 28.987337,32.473467 29.15625,32.71875 C 29.877081,33.785429 31.115504,34.5 32.5,34.5 C 33.687212,34.500001 34.720292,33.970744 35.46875,33.125 C 35.651622,32.923894 35.909036,32.806682 36.180791,32.800774 C 36.452546,32.794866 36.714811,32.900782 36.90625,33.09375 C 37.16638,33.35388 37.565045,33.5 38,33.5 C 38.615957,33.499999 39.139125,33.142804 39.375,32.625 C 39.486553,32.364631 39.704136,32.164404 39.97286,32.074829 C 40.241583,31.985255 40.535787,32.014887 40.78125,32.15625 C 41.157071,32.368438 41.572894,32.5 42,32.5 C 42.73953,32.5 43.375621,32.183385 43.84375,31.65625 C 44.148949,31.30746 44.655052,31.216621 45.0625,31.4375 C 45.196127,31.506733 45.330427,31.53125 45.5,31.53125 C 46.040243,31.53125 46.5,31.066412 46.5,30.5 C 46.500001,29.933591 46.059063,29.5 45.5,29.5 C 45.579266,29.5 45.512058,29.493222 45.3125,29.53125 C 44.861622,29.619831 44.408956,29.387031 44.21875,28.96875 C 43.950911,28.389368 43.533658,27.957818 42.96875,27.71875 C 42.492972,27.520459 42.248469,26.990703 42.40625,26.5 C 42.476577,26.297486 42.5,26.135918 42.5,26 C 42.5,25.254196 41.960118,24.659145 41.25,24.53125 C 40.836437,24.445136 40.522844,24.106456 40.46875,23.6875 C 40.378624,22.955504 39.979148,22.336926 39.40625,21.9375 C 39.153922,21.764448 38.995619,21.484594 38.977294,21.179175 C 38.958969,20.873755 39.082674,20.576982 39.3125,20.375 C 39.446844,20.258279 39.5,20.149369 39.5,20 C 39.5,19.701415 39.267975,19.46875 39,19.46875 z"
         id="path7066"
         style="fill:none;fill-opacity:1;stroke:#babdb6;stroke-width:0.99891388;stroke-linecap:round;stroke-linejoin:miter;stroke-miterlimit:4;stroke-dasharray:none;stroke-dashoffset:1.20000057;stroke-opacity:1"
         inkscape:original="M 39 18.46875 C 38.173595 18.46875 37.5 19.166962 37.5 20 C 37.5 20.197846 37.556235 20.358064 37.625 20.53125 C 36.026411 20.701636 34.741539 21.937334 34.53125 23.53125 C 33.308684 23.693337 32.298651 24.476006 31.8125 25.5625 C 31.576112 25.595658 31.349609 25.653704 31.125 25.71875 C 30.687793 24.990958 29.91027 24.5 29 24.5 C 27.738095 24.5 26.700779 25.440798 26.53125 26.65625 C 26.202337 26.568672 25.856372 26.5 25.5 26.5 C 24.19328 26.5 23.042608 27.123703 22.3125 28.09375 C 21.811275 27.71574 21.175693 27.5 20.5 27.5 C 19.443006 27.5 18.532871 28.047171 18 28.875 C 17.735501 28.637795 17.381605 28.46875 17 28.46875 C 16.173595 28.46875 15.5 29.166962 15.5 30 C 15.5 30.833037 16.173594 31.5 17 31.5 C 17.232427 31.5 17.459913 31.43916 17.65625 31.34375 C 18.026664 32.576835 19.146791 33.5 20.5 33.5 C 21.177794 33.500001 21.810481 33.255144 22.3125 32.875 C 23.041696 33.855912 24.184715 34.5 25.5 34.5 C 26.620181 34.5 27.617384 34.024031 28.34375 33.28125 C 29.24258 34.61133 30.774997 35.5 32.5 35.5 C 33.990289 35.500001 35.302456 34.816645 36.21875 33.78125 C 36.67125 34.23375 37.31 34.5 38 34.5 C 39.011116 34.499999 39.88756 33.895497 40.28125 33.03125 C 40.787002 33.316797 41.378164 33.5 42 33.5 C 43.037532 33.5 43.954595 33.032217 44.59375 32.3125 C 44.865856 32.453479 45.173155 32.53125 45.5 32.53125 C 46.597553 32.531251 47.5 31.605816 47.5 30.5 C 47.500001 29.394185 46.597553 28.5 45.5 28.5 C 45.373115 28.5 45.245301 28.539575 45.125 28.5625 C 44.761543 27.77628 44.14348 27.150944 43.34375 26.8125 C 43.433344 26.554504 43.5 26.288584 43.5 26 C 43.5 24.770719 42.60081 23.772017 41.4375 23.5625 C 41.312758 22.54936 40.764951 21.680113 39.96875 21.125 C 40.287361 20.848182 40.5 20.456946 40.5 20 C 40.5 19.166962 39.826406 18.46875 39 18.46875 z "
         inkscape:radius="-0.99144125"
         sodipodi:type="inkscape:offset" />
      <path
         id="path8127"
         d="M 31.78525,33.903958 C 31.00129,33.744217 30.54865,33.460323 29.717,32.606818 C 28.74749,31.611802 28.1691,31.560497 27.11183,32.375721 C 26.42868,32.902465 25.74332,33.083659 25.03128,32.92577 C 24.5034,32.808725 23.67971,32.336198 23.67971,32.150429 C 23.67971,32.091556 23.49061,31.914747 23.25948,31.757518 C 22.7292,31.396802 22.04805,31.380324 21.39768,31.71247 C 20.80267,32.016345 20.15299,32.023213 19.75809,31.729808 C 19.59267,31.606907 19.30533,31.239223 19.11954,30.912743 L 18.78175,30.319137 L 19.23214,29.841975 C 20.017,29.010454 20.49228,28.911839 21.42777,29.386397 C 22.34082,29.849563 22.80534,29.750267 23.74429,28.891196 C 24.45669,28.239408 25.01533,28.065592 26.0784,28.164968 C 27.22842,28.272473 27.73069,27.964053 28.05958,26.948414 C 28.23804,26.397314 28.56012,26.128856 29.04285,26.128856 C 29.36357,26.128866 29.52242,26.217631 29.86363,26.587558 C 30.43345,27.20533 30.91654,27.357363 31.75712,27.183436 C 32.55536,27.018279 32.93914,26.755648 33.31133,26.119877 C 33.64514,25.549675 33.9638,25.315765 34.70838,25.094408 C 35.46865,24.868395 35.80846,24.560565 35.99616,23.927857 C 36.19488,23.25794 36.44289,22.767824 36.68485,22.566799 C 36.78604,22.482719 37.25697,22.283525 37.73136,22.124134 L 38.59389,21.834324 L 39.18095,22.47438 C 39.57171,22.900426 39.8094,23.27731 39.89181,23.601558 C 40.11988,24.498919 40.44936,24.897286 41.13218,25.101295 C 41.287,25.147555 41.52734,25.289537 41.66626,25.416813 C 41.89047,25.622223 41.91614,25.744264 41.89478,26.502857 C 41.86598,27.525433 42.01156,27.806194 42.83287,28.312096 C 43.17913,28.525384 43.5122,28.858732 43.72504,29.205013 C 44.10846,29.828811 44.59733,30.119052 45.26461,30.119052 C 45.73463,30.119052 45.97384,30.274068 45.97384,30.578665 C 45.97384,30.962967 45.67944,31.067218 45.03278,30.911922 C 44.50683,30.785617 44.39234,30.792023 44.05148,30.966851 C 43.83925,31.075707 43.5016,31.307776 43.30115,31.482553 C 43.10069,31.657331 42.7253,31.857315 42.46694,31.92696 C 42.06721,32.034705 41.89378,32.018618 41.30341,31.818984 C 40.07181,31.402528 39.55405,31.527942 38.93314,32.393139 C 38.43999,33.080296 37.94603,33.154755 37.18134,32.657212 C 36.42472,32.164905 35.79336,32.234569 35.03301,32.894256 C 33.95656,33.828197 32.94967,34.141233 31.78525,33.903958 L 31.78525,33.903958 z"
         style="fill:url(#radialGradient6400);fill-opacity:1;fill-rule:evenodd;stroke:none;stroke-width:1.00000012;stroke-linecap:butt;stroke-linejoin:round;stroke-miterlimit:10;stroke-dasharray:none;stroke-dashoffset:0;stroke-opacity:1" />
      <path
         sodipodi:nodetypes="ccccc"
         id="path8154"
         d="M 32.875,31.564011 L 34.875,38.57152 L 39.875,39.572593 L 40.875,44.577957 L 44.875,45.57903"
         style="fill:none;fill-opacity:1;fill-rule:evenodd;stroke:url(#linearGradient6397);stroke-width:1px;stroke-linecap:round;stroke-linejoin:miter;stroke-opacity:1" />
      <path
         sodipodi:nodetypes="cccc"
         id="path8152"
         d="M 34.875,38.57152 L 32.875,41.574739 L 34.875,45.078494 L 32.875,46.580103"
         style="fill:none;fill-opacity:1;fill-rule:evenodd;stroke:url(#linearGradient6394);stroke-width:1px;stroke-linecap:butt;stroke-linejoin:miter;stroke-opacity:1" />
      <path
         sodipodi:nodetypes="cccc"
         id="path8156"
         d="M 32.875,41.574739 L 30.875,43.576884 L 28.875,43.576884 L 26.875,46.580103"
         style="fill:none;fill-opacity:1;fill-rule:evenodd;stroke:url(#linearGradient6391);stroke-width:1px;stroke-linecap:butt;stroke-linejoin:miter;stroke-opacity:1" />
      <path
         transform="matrix(0.82353,0,0,1.1440831,12.49264,0.3877407)"
         d="M 29,27.25 A 4.25,1.75 0 1 1 20.5,27.25 A 4.25,1.75 0 1 1 29,27.25 z"
         sodipodi:ry="1.75"
         sodipodi:rx="4.25"
         sodipodi:cy="27.25"
         sodipodi:cx="24.75"
         id="path8158"
         style="opacity:0.7;fill:url(#radialGradient6441);fill-opacity:1;stroke:none;stroke-width:1;stroke-linecap:round;stroke-linejoin:miter;stroke-miterlimit:4;stroke-dasharray:none;stroke-dashoffset:1.20000057;stroke-opacity:1"
         sodipodi:type="arc" />
    </g>
  </g>
</svg>
