<?xml version="1.0" encoding="UTF-8" standalone="no"?>
<!-- Created with Inkscape (http://www.inkscape.org/) -->
<svg
   xmlns:dc="http://purl.org/dc/elements/1.1/"
   xmlns:cc="http://creativecommons.org/ns#"
   xmlns:rdf="http://www.w3.org/1999/02/22-rdf-syntax-ns#"
   xmlns:svg="http://www.w3.org/2000/svg"
   xmlns="http://www.w3.org/2000/svg"
   xmlns:xlink="http://www.w3.org/1999/xlink"
   xmlns:sodipodi="http://sodipodi.sourceforge.net/DTD/sodipodi-0.dtd"
   xmlns:inkscape="http://www.inkscape.org/namespaces/inkscape"
   width="48px"
   height="48px"
   id="svg1306"
   sodipodi:version="0.32"
   inkscape:version="0.46"
   sodipodi:docbase="/home/dobey/Projects/gnome-icon-theme/scalable/status"
   sodipodi:docname="weather-very-few-clouds.svg"
   inkscape:output_extension="org.inkscape.output.svg.inkscape"
   inkscape:export-filename="C:\icons\Tango\gnome-icon-theme-2.23.92\48x48\status\weather-very-few-clouds.png"
   inkscape:export-xdpi="90"
   inkscape:export-ydpi="90">
  <defs
     id="defs1308">
    <inkscape:perspective
       sodipodi:type="inkscape:persp3d"
       inkscape:vp_x="0 : 24 : 1"
       inkscape:vp_y="0 : 1000 : 0"
       inkscape:vp_z="48 : 24 : 1"
       inkscape:persp3d-origin="24 : 16 : 1"
       id="perspective5827" />
    <linearGradient
       id="linearGradient1994">
      <stop
         id="stop1997"
         offset="0"
         style="stop-color:white;stop-opacity:1" />
      <stop
         style="stop-color:white;stop-opacity:1;"
         offset="0.5"
         id="stop2001" />
      <stop
         id="stop1999"
         offset="1"
         style="stop-color:#d3d7cf;stop-opacity:1" />
    </linearGradient>
    <linearGradient
       inkscape:collect="always"
       id="linearGradient5150">
      <stop
         style="stop-color:white;stop-opacity:1;"
         offset="0"
         id="stop5152" />
      <stop
         style="stop-color:white;stop-opacity:0;"
         offset="1"
         id="stop5154" />
    </linearGradient>
    <linearGradient
       id="linearGradient5142">
      <stop
         style="stop-color:#f1ff74;stop-opacity:1;"
         offset="0"
         id="stop5144" />
      <stop
         style="stop-color:#ffc10f;stop-opacity:1;"
         offset="1"
         id="stop5146" />
    </linearGradient>
    <linearGradient
       id="linearGradient5134">
      <stop
         style="stop-color:#ffdf1a;stop-opacity:1;"
         offset="0"
         id="stop5136" />
      <stop
         style="stop-color:#fff9ce;stop-opacity:1;"
         offset="1"
         id="stop5138" />
    </linearGradient>
    <linearGradient
       inkscape:collect="always"
       id="linearGradient5125">
      <stop
         style="stop-color:#ffc10f;stop-opacity:1;"
         offset="0"
         id="stop5127" />
      <stop
         style="stop-color:#ffc10f;stop-opacity:0;"
         offset="1"
         id="stop5129" />
    </linearGradient>
    <linearGradient
       id="linearGradient5115">
      <stop
         style="stop-color:white;stop-opacity:0;"
         offset="0"
         id="stop5117" />
      <stop
         id="stop5123"
         offset="0.83783782"
         style="stop-color:#f6e97f;stop-opacity:0.35922331;" />
      <stop
         style="stop-color:#edd400;stop-opacity:1;"
         offset="1"
         id="stop5119" />
    </linearGradient>
    <linearGradient
       id="linearGradient5101">
      <stop
         style="stop-color:white;stop-opacity:1;"
         offset="0"
         id="stop5103" />
      <stop
         style="stop-color:#edd400;stop-opacity:0.1262136;"
         offset="1"
         id="stop5105" />
    </linearGradient>
    <radialGradient
       inkscape:collect="always"
       xlink:href="#linearGradient5101"
       id="radialGradient1906"
       gradientUnits="userSpaceOnUse"
       cx="23.142857"
       cy="24.285715"
       fx="23.142857"
       fy="24.285715"
       r="23.142857" />
    <radialGradient
       inkscape:collect="always"
       xlink:href="#linearGradient5115"
       id="radialGradient1908"
       gradientUnits="userSpaceOnUse"
       gradientTransform="matrix(1,0,0,1.01674,0,-0.39987)"
       cx="21.895287"
       cy="23.886944"
       fx="21.895287"
       fy="23.886944"
       r="23.398855" />
    <radialGradient
       inkscape:collect="always"
       xlink:href="#linearGradient5150"
       id="radialGradient1919"
       gradientUnits="userSpaceOnUse"
       gradientTransform="matrix(-1.636524e-8,-1.353395,2.022695,-2.607526e-8,-27.81932,50.0004)"
       cx="25.245258"
       cy="25.618958"
       fx="25.245258"
       fy="25.618958"
       r="14.760339" />
    <radialGradient
       inkscape:collect="always"
       xlink:href="#linearGradient5142"
       id="radialGradient1925"
       gradientUnits="userSpaceOnUse"
       gradientTransform="matrix(1.421498,0,0,1.421498,-9.724552,-9.754659)"
       cx="23.071423"
       cy="30.798319"
       fx="23.071423"
       fy="30.798319"
       r="22.856438" />
    <linearGradient
       inkscape:collect="always"
       xlink:href="#linearGradient5134"
       id="linearGradient1927"
       gradientUnits="userSpaceOnUse"
       x1="20.908642"
       y1="52.221584"
       x2="15.422572"
       y2="-4.3302984" />
    <radialGradient
       inkscape:collect="always"
       xlink:href="#linearGradient5125"
       id="radialGradient1929"
       gradientUnits="userSpaceOnUse"
       cx="23.071428"
       cy="23.142857"
       fx="23.071428"
       fy="23.142857"
       r="22.825405" />
    <radialGradient
       inkscape:collect="always"
       xlink:href="#linearGradient1994"
       id="radialGradient2003"
       cx="19.160831"
       cy="10.574146"
       fx="19.160831"
       fy="10.574146"
       r="8.484375"
       gradientTransform="matrix(1.186004,-2.209896e-2,1.097582e-2,0.589216,-4.153381,5.817969)"
       gradientUnits="userSpaceOnUse" />
    <radialGradient
       inkscape:collect="always"
       xlink:href="#linearGradient1994"
       id="radialGradient2979"
       gradientUnits="userSpaceOnUse"
       gradientTransform="matrix(1.090165,-1.249946e-2,5.362702e-3,0.467677,-1.896362,13.38227)"
       cx="10.255606"
       cy="17.808355"
       fx="10.255606"
       fy="17.808355"
       r="15" />
    <radialGradient
       inkscape:collect="always"
       xlink:href="#linearGradient1994"
       id="radialGradient3088"
       cx="30.319067"
       cy="23.864922"
       fx="30.319067"
       fy="23.864922"
       r="16.5"
       gradientTransform="matrix(1.430283,5.356339e-3,-2.040517e-3,0.546399,-12.64539,12.08204)"
       gradientUnits="userSpaceOnUse" />
  </defs>
  <sodipodi:namedview
     id="base"
     pagecolor="#ffffff"
     bordercolor="#666"
     borderopacity="0.19215686"
     inkscape:pageopacity="0.0"
     inkscape:pageshadow="2"
     inkscape:zoom="1"
     inkscape:cx="24"
     inkscape:cy="24"
     inkscape:current-layer="layer1"
     showgrid="false"
     inkscape:grid-bbox="true"
     inkscape:document-units="px"
     inkscape:window-width="1051"
     inkscape:window-height="900"
     inkscape:window-x="479"
     inkscape:window-y="71"
     inkscape:showpageshadow="false"
     showborder="true" />
  <metadata
     id="metadata1311">
    <rdf:RDF>
      <cc:Work
         rdf:about="">
        <dc:format>image/svg+xml</dc:format>
        <dc:type
           rdf:resource="http://purl.org/dc/dcmitype/StillImage" />
        <cc:license
           rdf:resource="http://creativecommons.org/licenses/GPL/2.0/" />
        <dc:title>Weather Few Clouds</dc:title>
        <dc:creator>
          <cc:Agent>
            <dc:title>Lapo Calamandrei</dc:title>
          </cc:Agent>
        </dc:creator>
      </cc:Work>
      <cc:License
         rdf:about="http://creativecommons.org/licenses/GPL/2.0/">
        <cc:permits
           rdf:resource="http://web.resource.org/cc/Reproduction" />
        <cc:permits
           rdf:resource="http://web.resource.org/cc/Distribution" />
        <cc:requires
           rdf:resource="http://web.resource.org/cc/Notice" />
        <cc:permits
           rdf:resource="http://web.resource.org/cc/DerivativeWorks" />
        <cc:requires
           rdf:resource="http://web.resource.org/cc/ShareAlike" />
        <cc:requires
           rdf:resource="http://web.resource.org/cc/SourceCode" />
      </cc:License>
    </rdf:RDF>
  </metadata>
  <g
     id="layer1"
     inkscape:label="Layer 1"
     inkscape:groupmode="layer">
    <g
       id="g14918">
      <g
         id="g14136">
        <path
           sodipodi:type="arc"
           style="color:black;fill:url(#radialGradient1906);fill-opacity:1;fill-rule:evenodd;stroke:none;stroke-width:1;stroke-linecap:round;stroke-linejoin:miter;marker:none;marker-start:none;marker-mid:none;marker-end:none;stroke-miterlimit:4;stroke-dasharray:none;stroke-dashoffset:0;stroke-opacity:1;visibility:visible;display:inline;overflow:visible"
           id="path4226"
           sodipodi:cx="23.142857"
           sodipodi:cy="24.285715"
           sodipodi:rx="23.142857"
           sodipodi:ry="23.142857"
           d="M 46.285713 24.285715 A 23.142857 23.142857 0 1 1  0,24.285715 A 23.142857 23.142857 0 1 1  46.285713 24.285715 z"
           transform="matrix(0.750039,0,0,0.75204,6.391761,5.314298)" />
        <path
           sodipodi:type="star"
           style="opacity:0.66292138;color:black;fill:url(#radialGradient1908);fill-opacity:1;fill-rule:evenodd;stroke:none;stroke-width:1;stroke-linecap:round;stroke-linejoin:miter;marker:none;marker-start:none;marker-mid:none;marker-end:none;stroke-miterlimit:4;stroke-dasharray:none;stroke-dashoffset:0;stroke-opacity:1;visibility:visible;display:inline;overflow:visible"
           id="path5113"
           sodipodi:sides="11"
           sodipodi:cx="23.511301"
           sodipodi:cy="23.074486"
           sodipodi:r1="25.152658"
           sodipodi:r2="12.137954"
           sodipodi:arg1="0.52359878"
           sodipodi:arg2="0.80919811"
           inkscape:flatsided="false"
           inkscape:rounded="0"
           inkscape:randomized="0"
           d="M 45.294142,35.650815 L 31.887448,31.859136 L 35.036916,45.43106 L 25.808424,34.993091 L 21.120389,48.113251 L 19.000079,34.342973 L 7.9629591,42.845811 L 13.624016,30.11519 L -0.25798184,31.301114 L 11.387095,23.652033 L -0.9323434,17.144522 L 12.999525,17.005509 L 6.1539794,4.8706506 L 17.949369,12.285842 L 18.751129,-1.6236314 L 24.665087,10.991494 L 32.8596,-0.27643573 L 31.014486,13.53341 L 44.000052,8.4845125 L 34.981677,19.10455 L 48.63547,21.877674 L 35.307105,25.936117 L 45.294142,35.650815 z "
           transform="matrix(0.741704,-0.253089,0.252415,0.743682,0.700177,11.56434)" />
        <path
           sodipodi:type="arc"
           style="color:black;fill:url(#radialGradient1929);fill-opacity:1;fill-rule:evenodd;stroke:#ff9e1a;stroke-width:1.64021099;stroke-linecap:butt;stroke-linejoin:round;marker:none;marker-start:none;marker-mid:none;marker-end:none;stroke-miterlimit:4;stroke-dasharray:none;stroke-dashoffset:0;stroke-opacity:1;visibility:visible;display:inline;overflow:visible"
           id="path1314"
           sodipodi:cx="23.071428"
           sodipodi:cy="23.142857"
           sodipodi:rx="22.142857"
           sodipodi:ry="22.142857"
           d="M 45.214285 23.142857 A 22.142857 22.142857 0 1 1  0.9285717,23.142857 A 22.142857 22.142857 0 1 1  45.214285 23.142857 z"
           transform="matrix(0.609677,0,0,0.609677,9.93387,9.890323)" />
        <path
           sodipodi:type="arc"
           style="color:black;fill:url(#radialGradient1925);fill-opacity:1;fill-rule:evenodd;stroke:url(#linearGradient1927);stroke-width:1.77104032;stroke-linecap:butt;stroke-linejoin:round;marker:none;marker-start:none;marker-mid:none;marker-end:none;stroke-miterlimit:4;stroke-dasharray:none;stroke-dashoffset:0;stroke-opacity:1;visibility:visible;display:inline;overflow:visible"
           id="path2044"
           sodipodi:cx="23.071428"
           sodipodi:cy="23.142857"
           sodipodi:rx="22.142857"
           sodipodi:ry="22.142857"
           d="M 45.214285 23.142857 A 22.142857 22.142857 0 1 1  0.9285717,23.142857 A 22.142857 22.142857 0 1 1  45.214285 23.142857 z"
           transform="matrix(0.564516,0,0,0.564762,10.97581,10.93524)" />
        <path
           style="opacity:0.73033711;color:black;fill:url(#radialGradient1919);fill-opacity:1;fill-rule:evenodd;stroke:none;stroke-width:1;stroke-linecap:butt;stroke-linejoin:round;marker:none;marker-start:none;marker-mid:none;marker-end:none;stroke-miterlimit:4;stroke-dashoffset:0;stroke-opacity:1;visibility:visible;display:inline;overflow:visible"
           d="M 35.875,21.494252 C 30.902329,17.62271 8.9953842,31.195695 12.50345,20.470666 C 14.310767,14.945242 19.415566,12.040646 23.691958,11.940786 C 29.171177,11.812838 34.217442,15.428485 35.875,21.494252 z "
           id="path2046"
           sodipodi:nodetypes="cssc" />
        <g
           id="g3098">
          <path
             sodipodi:nodetypes="csccccscscscssscscscscscscsssccsccsc"
             id="path3219"
             d="M 39,18.46875 C 38.173595,18.46875 37.5,19.166962 37.5,20 C 37.5,20.197846 37.556235,20.358064 37.625,20.53125 C 36.026411,20.701636 34.741539,21.937334 34.53125,23.53125 C 33.308684,23.693337 32.298651,24.476006 31.8125,25.5625 C 31.576112,25.595658 31.349609,25.653704 31.125,25.71875 C 30.687793,24.990958 29.91027,24.5 29,24.5 C 27.738095,24.5 26.700779,25.440798 26.53125,26.65625 C 26.202337,26.568672 25.856372,26.5 25.5,26.5 C 24.19328,26.5 23.042608,27.123703 22.3125,28.09375 C 21.811275,27.71574 21.175693,27.5 20.5,27.5 C 19.443006,27.5 18.532871,28.047171 18,28.875 C 17.735501,28.637795 17.381605,28.46875 17,28.46875 C 16.173595,28.46875 15.5,29.166962 15.5,30 C 15.5,30.833037 16.173594,31.5 17,31.5 C 17.232427,31.5 17.459913,31.43916 17.65625,31.34375 C 18.026664,32.576835 19.146791,33.5 20.5,33.5 C 21.177794,33.500001 21.810481,33.255144 22.3125,32.875 C 23.041696,33.855912 24.184715,34.5 25.5,34.5 C 26.620181,34.5 27.617384,34.024031 28.34375,33.28125 C 29.24258,34.61133 30.774997,35.5 32.5,35.5 C 33.990289,35.500001 35.302456,34.816645 36.21875,33.78125 C 36.67125,34.23375 37.31,34.5 38,34.5 C 39.011116,34.499999 39.88756,33.895497 40.28125,33.03125 C 40.787002,33.316797 41.378164,33.5 42,33.5 C 43.037532,33.5 43.954595,33.032217 44.59375,32.3125 C 44.865856,32.453479 45.173155,32.53125 45.5,32.53125 C 46.597553,32.531251 47.5,31.605816 47.5,30.5 C 47.500001,29.394185 46.597553,28.5 45.5,28.5 C 45.373115,28.5 45.245301,28.539575 45.125,28.5625 C 44.761543,27.77628 44.14348,27.150944 43.34375,26.8125 C 43.433344,26.554504 43.5,26.288584 43.5,26 C 43.5,24.770719 42.60081,23.772017 41.4375,23.5625 C 41.312758,22.54936 40.764951,21.680113 39.96875,21.125 C 40.287361,20.848182 40.5,20.456946 40.5,20 C 40.5,19.166962 39.826406,18.46875 39,18.46875 z "
             style="fill:url(#radialGradient3088);fill-opacity:1.0;stroke:#729fcf;stroke-width:1;stroke-linecap:round;stroke-linejoin:miter;stroke-miterlimit:4;stroke-dasharray:none;stroke-dashoffset:1.20000057;stroke-opacity:1" />
          <path
             d="M 39,19.46875 C 38.732027,19.46875 38.5,19.701415 38.5,20 C 38.5,20.009977 38.471465,20.005679 38.53125,20.15625 C 38.654762,20.446285 38.633,20.777769 38.472629,21.049167 C 38.312257,21.320565 38.032389,21.499532 37.71875,21.53125 C 36.566823,21.654028 35.650482,22.51565 35.5,23.65625 C 35.438393,24.094196 35.094196,24.438393 34.65625,24.5 C 33.775377,24.616786 33.068305,25.187532 32.71875,25.96875 C 32.572931,26.278571 32.277574,26.491228 31.9375,26.53125 C 31.772462,26.5544 31.611174,26.596905 31.40625,26.65625 C 30.975455,26.781767 30.51406,26.602336 30.28125,26.21875 C 30.009886,25.767027 29.553778,25.5 29,25.5 C 28.230866,25.5 27.602761,26.044494 27.5,26.78125 C 27.465813,27.062439 27.312996,27.315581 27.080103,27.476815 C 26.847209,27.638049 26.556477,27.691979 26.28125,27.625 C 25.994853,27.548742 25.729006,27.5 25.5,27.5 C 24.508759,27.5 23.645666,27.954205 23.09375,28.6875 C 22.762807,29.11376 22.15174,29.197088 21.71875,28.875 C 21.394432,28.630408 20.964657,28.5 20.5,28.5 C 19.785164,28.5 19.206147,28.843256 18.84375,29.40625 C 18.689557,29.654462 18.43373,29.822023 18.144582,29.86419 C 17.855434,29.906358 17.562409,29.818838 17.34375,29.625 C 17.232196,29.524958 17.08881,29.46875 17,29.46875 C 16.732027,29.46875 16.5,29.701415 16.5,30 C 16.5,30.298584 16.707032,30.5 17,30.5 C 17.059414,30.5 17.144167,30.473743 17.21875,30.4375 C 17.481881,30.313879 17.786008,30.311967 18.050673,30.432269 C 18.315338,30.552571 18.513871,30.782966 18.59375,31.0625 C 18.84495,31.89873 19.597701,32.5 20.5,32.5 C 20.939017,32.500001 21.37299,32.35557 21.71875,32.09375 C 22.15174,31.771662 22.762807,31.85499 23.09375,32.28125 C 23.65097,33.03082 24.508384,33.5 25.5,33.5 C 26.339336,33.5 27.067744,33.163599 27.625,32.59375 C 27.831457,32.379109 28.123459,32.268636 28.420289,32.292867 C 28.717119,32.317098 28.987337,32.473467 29.15625,32.71875 C 29.877081,33.785429 31.115504,34.5 32.5,34.5 C 33.687212,34.500001 34.720292,33.970744 35.46875,33.125 C 35.651622,32.923894 35.909036,32.806682 36.180791,32.800774 C 36.452546,32.794866 36.714811,32.900782 36.90625,33.09375 C 37.16638,33.35388 37.565045,33.5 38,33.5 C 38.615957,33.499999 39.139125,33.142804 39.375,32.625 C 39.486553,32.364631 39.704136,32.164404 39.97286,32.074829 C 40.241583,31.985255 40.535787,32.014887 40.78125,32.15625 C 41.157071,32.368438 41.572894,32.5 42,32.5 C 42.73953,32.5 43.375621,32.183385 43.84375,31.65625 C 44.148949,31.30746 44.655052,31.216621 45.0625,31.4375 C 45.196127,31.506733 45.330427,31.53125 45.5,31.53125 C 46.040243,31.53125 46.5,31.066412 46.5,30.5 C 46.500001,29.933591 46.059063,29.5 45.5,29.5 C 45.579266,29.5 45.512058,29.493222 45.3125,29.53125 C 44.861622,29.619831 44.408956,29.387031 44.21875,28.96875 C 43.950911,28.389368 43.533658,27.957818 42.96875,27.71875 C 42.492972,27.520459 42.248469,26.990703 42.40625,26.5 C 42.476577,26.297486 42.5,26.135918 42.5,26 C 42.5,25.254196 41.960118,24.659145 41.25,24.53125 C 40.836437,24.445136 40.522844,24.106456 40.46875,23.6875 C 40.378624,22.955504 39.979148,22.336926 39.40625,21.9375 C 39.153922,21.764448 38.995619,21.484594 38.977294,21.179175 C 38.958969,20.873755 39.082674,20.576982 39.3125,20.375 C 39.446844,20.258279 39.5,20.149369 39.5,20 C 39.5,19.701415 39.267975,19.46875 39,19.46875 z "
             id="path3094"
             style="fill:none;fill-opacity:1;stroke:white;stroke-width:1;stroke-linecap:round;stroke-linejoin:miter;stroke-miterlimit:4;stroke-dasharray:none;stroke-dashoffset:1.20000057;stroke-opacity:1"
             inkscape:original="M 39 18.46875 C 38.173595 18.46875 37.5 19.166962 37.5 20 C 37.5 20.197846 37.556235 20.358064 37.625 20.53125 C 36.026411 20.701636 34.741539 21.937334 34.53125 23.53125 C 33.308684 23.693337 32.298651 24.476006 31.8125 25.5625 C 31.576112 25.595658 31.349609 25.653704 31.125 25.71875 C 30.687793 24.990958 29.91027 24.5 29 24.5 C 27.738095 24.5 26.700779 25.440798 26.53125 26.65625 C 26.202337 26.568672 25.856372 26.5 25.5 26.5 C 24.19328 26.5 23.042608 27.123703 22.3125 28.09375 C 21.811275 27.71574 21.175693 27.5 20.5 27.5 C 19.443006 27.5 18.532871 28.047171 18 28.875 C 17.735501 28.637795 17.381605 28.46875 17 28.46875 C 16.173595 28.46875 15.5 29.166962 15.5 30 C 15.5 30.833037 16.173594 31.5 17 31.5 C 17.232427 31.5 17.459913 31.43916 17.65625 31.34375 C 18.026664 32.576835 19.146791 33.5 20.5 33.5 C 21.177794 33.500001 21.810481 33.255144 22.3125 32.875 C 23.041696 33.855912 24.184715 34.5 25.5 34.5 C 26.620181 34.5 27.617384 34.024031 28.34375 33.28125 C 29.24258 34.61133 30.774997 35.5 32.5 35.5 C 33.990289 35.500001 35.302456 34.816645 36.21875 33.78125 C 36.67125 34.23375 37.31 34.5 38 34.5 C 39.011116 34.499999 39.88756 33.895497 40.28125 33.03125 C 40.787002 33.316797 41.378164 33.5 42 33.5 C 43.037532 33.5 43.954595 33.032217 44.59375 32.3125 C 44.865856 32.453479 45.173155 32.53125 45.5 32.53125 C 46.597553 32.531251 47.5 31.605816 47.5 30.5 C 47.500001 29.394185 46.597553 28.5 45.5 28.5 C 45.373115 28.5 45.245301 28.539575 45.125 28.5625 C 44.761543 27.77628 44.14348 27.150944 43.34375 26.8125 C 43.433344 26.554504 43.5 26.288584 43.5 26 C 43.5 24.770719 42.60081 23.772017 41.4375 23.5625 C 41.312758 22.54936 40.764951 21.680113 39.96875 21.125 C 40.287361 20.848182 40.5 20.456946 40.5 20 C 40.5 19.166962 39.826406 18.46875 39 18.46875 z "
             inkscape:radius="-0.99144125"
             sodipodi:type="inkscape:offset" />
        </g>
      </g>
      <rect
         y="0.5"
         x="0.5"
         height="47"
         width="47"
         id="rect14146"
         style="opacity:0;fill:#ffffff;fill-opacity:1;fill-rule:evenodd;stroke:#ffffff;stroke-width:1;stroke-linecap:round;stroke-linejoin:round;stroke-miterlimit:4;stroke-dasharray:none;stroke-dashoffset:1.39999999999999990;stroke-opacity:1" />
    </g>
  </g>
</svg>
