<?xml version="1.0" encoding="UTF-8" standalone="no"?>
<!-- Created with Inkscape (http://www.inkscape.org/) -->

<svg
   xmlns:dc="http://purl.org/dc/elements/1.1/"
   xmlns:cc="http://creativecommons.org/ns#"
   xmlns:rdf="http://www.w3.org/1999/02/22-rdf-syntax-ns#"
   xmlns:svg="http://www.w3.org/2000/svg"
   xmlns="http://www.w3.org/2000/svg"
   xmlns:xlink="http://www.w3.org/1999/xlink"
   xmlns:sodipodi="http://sodipodi.sourceforge.net/DTD/sodipodi-0.dtd"
   xmlns:inkscape="http://www.inkscape.org/namespaces/inkscape"
   width="48px"
   height="48px"
   id="svg3719"
   version="1.1"
   inkscape:version="0.48.4 r9939"
   sodipodi:docname="New document 3">
  <defs
     id="defs3721">
    <radialGradient
       inkscape:collect="always"
       xlink:href="#linearGradient5164"
       id="radialGradient6822"
       gradientUnits="userSpaceOnUse"
       cx="23.688078"
       cy="23.42804"
       fx="23.688078"
       fy="23.42804"
       r="22.45064" />
    <linearGradient
       inkscape:collect="always"
       id="linearGradient5164">
      <stop
         style="stop-color:white;stop-opacity:1;"
         offset="0"
         id="stop5166" />
      <stop
         style="stop-color:white;stop-opacity:0;"
         offset="1"
         id="stop5168" />
    </linearGradient>
    <radialGradient
       inkscape:collect="always"
       xlink:href="#linearGradient5154"
       id="radialGradient6824"
       gradientUnits="userSpaceOnUse"
       gradientTransform="matrix(1.440625,0,0,1.440625,-10.16586,-3.037035)"
       cx="23.071428"
       cy="6.8925552"
       fx="23.071428"
       fy="6.8925552"
       r="22.812965" />
    <linearGradient
       id="linearGradient5154">
      <stop
         style="stop-color:#d9d8d6;stop-opacity:1;"
         offset="0"
         id="stop5156" />
      <stop
         style="stop-color:#b5b4b0;stop-opacity:1;"
         offset="1"
         id="stop5158" />
    </linearGradient>
    <radialGradient
       inkscape:collect="always"
       xlink:href="#linearGradient5199"
       id="radialGradient6826"
       gradientUnits="userSpaceOnUse"
       gradientTransform="matrix(1.6556461,0,0,1.0906236,-15.857814,3.0797427)"
       cx="24.125"
       cy="9.7349367"
       fx="24.125"
       fy="9.7349367"
       r="15.75" />
    <linearGradient
       id="linearGradient5199">
      <stop
         style="stop-color:#7e7878;stop-opacity:0.09708738;"
         offset="0"
         id="stop5201" />
      <stop
         style="stop-color:#7e7878;stop-opacity:1;"
         offset="1"
         id="stop5203" />
    </linearGradient>
    <radialGradient
       inkscape:collect="always"
       xlink:href="#linearGradient5138"
       id="radialGradient6828"
       gradientUnits="userSpaceOnUse"
       gradientTransform="matrix(3.373032,0,0,3.373032,-54.74925,-26.13148)"
       cx="23.071428"
       cy="11.011853"
       fx="23.071428"
       fy="11.011853"
       r="22.856438" />
    <linearGradient
       inkscape:collect="always"
       id="linearGradient5138">
      <stop
         style="stop-color:white;stop-opacity:1;"
         offset="0"
         id="stop5140" />
      <stop
         style="stop-color:white;stop-opacity:0;"
         offset="1"
         id="stop5142" />
    </linearGradient>
    <radialGradient
       inkscape:collect="always"
       xlink:href="#linearGradient5191"
       id="radialGradient6830"
       gradientUnits="userSpaceOnUse"
       gradientTransform="matrix(1.5014408,0,0,1.1331629,-11.220732,-5.3837754)"
       cx="22.288452"
       cy="34.537094"
       fx="22.288452"
       fy="34.537094"
       r="9.9375" />
    <linearGradient
       inkscape:collect="always"
       id="linearGradient5191">
      <stop
         style="stop-color:#dadad9;stop-opacity:1;"
         offset="0"
         id="stop5193" />
      <stop
         style="stop-color:#dadad9;stop-opacity:0;"
         offset="1"
         id="stop5195" />
    </linearGradient>
  </defs>
  <sodipodi:namedview
     id="base"
     pagecolor="#ffffff"
     bordercolor="#666666"
     borderopacity="1.0"
     inkscape:pageopacity="0.0"
     inkscape:pageshadow="2"
     inkscape:zoom="7"
     inkscape:cx="24"
     inkscape:cy="24"
     inkscape:current-layer="layer1"
     showgrid="true"
     inkscape:grid-bbox="true"
     inkscape:document-units="px"
     inkscape:window-width="866"
     inkscape:window-height="646"
     inkscape:window-x="730"
     inkscape:window-y="302"
     inkscape:window-maximized="0" />
  <metadata
     id="metadata3724">
    <rdf:RDF>
      <cc:Work
         rdf:about="">
        <dc:format>image/svg+xml</dc:format>
        <dc:type
           rdf:resource="http://purl.org/dc/dcmitype/StillImage" />
        <dc:title></dc:title>
      </cc:Work>
    </rdf:RDF>
  </metadata>
  <g
     id="layer1"
     inkscape:label="Layer 1"
     inkscape:groupmode="layer">
    <g
       id="g6800"
       inkscape:export-filename="C:\icons\Tango\gnome-icon-theme-2.23.92\48x48\status\weather-night-waning-gibbous.png"
       inkscape:export-xdpi="90"
       inkscape:export-ydpi="90"
       transform="translate(-49.857142,4.2857143e-7)">
      <rect
         y="-3.5839844e-14"
         x="50"
         height="48"
         width="48"
         id="rect6500"
         style="opacity:0;fill:#888a85;fill-opacity:1;fill-rule:evenodd;stroke:none" />
      <g
         id="g6780">
        <path
           sodipodi:type="arc"
           style="fill:url(#radialGradient6822);fill-opacity:1;fill-rule:evenodd;stroke:none;stroke-width:1;marker:none;visibility:visible;display:inline;overflow:visible"
           id="path6466"
           sodipodi:cx="23.688078"
           sodipodi:cy="23.42804"
           sodipodi:rx="22.45064"
           sodipodi:ry="22.45064"
           d="m 46.138718,23.42804 c 0,12.399145 -10.051494,22.450639 -22.45064,22.450639 -12.399146,0 -22.4506398,-10.051494 -22.4506398,-22.450639 0,-12.399146 10.0514938,-22.45064017 22.4506398,-22.45064017 12.399146,0 22.45064,10.05149417 22.45064,22.45064017 z"
           transform="matrix(1.0021986,0,0,1.0021986,49.759841,0.0204497)" />
        <g
           id="g6762">
          <g
             transform="matrix(-1,0,0,1,98.049666,-1.5497208e-6)"
             id="g6468">
            <path
               sodipodi:type="arc"
               style="fill:url(#radialGradient6824);fill-opacity:1;fill-rule:evenodd;stroke:#888a85;stroke-width:1.33727813;stroke-linecap:butt;stroke-linejoin:round;stroke-miterlimit:4;stroke-opacity:1;stroke-dasharray:none;stroke-dashoffset:0;marker:none;visibility:visible;display:inline;overflow:visible"
               id="path6470"
               sodipodi:cx="23.071428"
               sodipodi:cy="23.142857"
               sodipodi:rx="22.142857"
               sodipodi:ry="22.142857"
               d="m 45.214285,23.142857 c 0,12.229162 -9.913695,22.142856 -22.142857,22.142856 -12.229162,0 -22.1428563,-9.913694 -22.1428563,-22.142856 C 0.9285717,10.913695 10.842266,1 23.071428,1 35.30059,1 45.214285,10.913695 45.214285,23.142857 z"
               transform="matrix(0.7477945,0,0,0.7477805,6.7721456,6.6853786)" />
            <path
               inkscape:connector-curvature="0"
               style="opacity:0.33146069;fill:url(#radialGradient6826);fill-opacity:1;fill-rule:evenodd;stroke:none;stroke-width:1;marker:none;visibility:visible;display:inline;overflow:visible"
               d="m 10.805519,24.971635 c 0,0 2.599453,1.221429 2.630771,2.129672 0.03132,0.908242 -2.317584,0.313187 -2.505496,1.503297 -0.187912,1.190111 0.281868,3.225827 1.753847,3.257146 1.471979,0.03132 1.847804,-2.442859 4.13407,-3.131871 2.286265,-0.689011 4.008794,1.47198 5.010993,0.375825 1.002198,-1.096155 -1.158793,-2.630772 -1.002199,-4.760444 0.156593,-2.129672 0.532418,-1.722528 1.628573,-2.442859 1.096154,-0.72033 1.506296,1.726169 2.756046,-0.438462 1.207733,-2.091855 -2.536815,-1.346704 -2.380222,-2.756046 0.156594,-1.409341 1.096155,-2.975277 3.006596,-2.881321 1.910441,0.09396 4.635168,3.257146 4.635168,3.257146 1.213804,1.167825 0.03871,3.433934 0.626375,5.010993 0.690253,1.852364 2.589012,1.74626 3.883519,1.753847 0,0 -1.910441,-2.16099 -1.628573,-3.507695 0.281869,-1.346704 1.378024,-2.693408 2.756047,-1.879122 1.378023,0.814286 2.756046,5.136268 2.756046,5.136268 l 1.002198,-4.384619 -2.129672,-5.261543 c 0,0 -3.037914,1.064836 -6.389016,0.375825 -3.351101,-0.689012 -3.695607,-3.288465 -7.01539,-3.131871 -3.319783,0.156594 -3.63297,3.476376 -6.263741,3.758245 -2.630772,0.281868 -3.38242,-1.158792 -4.259344,-2.630772 -0.876924,-1.471979 0.751649,-3.257145 0.751649,-3.257145 l -6.2637416,8.518688 2.5054966,5.386818 z"
               id="path6472"
               sodipodi:nodetypes="cssssssszsscscsscccssssccc" />
            <path
               sodipodi:type="arc"
               style="opacity:0.80898874;fill:none;stroke:url(#radialGradient6828);stroke-width:1.42403126;stroke-linecap:butt;stroke-linejoin:round;stroke-miterlimit:4;stroke-opacity:1;stroke-dasharray:none;stroke-dashoffset:0;marker:none;visibility:visible;display:inline;overflow:visible"
               id="path6474"
               sodipodi:cx="23.071428"
               sodipodi:cy="23.142857"
               sodipodi:rx="22.142857"
               sodipodi:ry="22.142857"
               d="m 45.214285,23.142857 c 0,12.229162 -9.913695,22.142856 -22.142857,22.142856 -12.229162,0 -22.1428563,-9.913694 -22.1428563,-22.142856 C 0.9285717,10.913695 10.842266,1 23.071428,1 35.30059,1 45.214285,10.913695 45.214285,23.142857 z"
               transform="matrix(0.7022386,0,0,0.7022245,7.8271891,7.7436552)" />
            <path
               inkscape:connector-curvature="0"
               style="opacity:0.64606742;fill:url(#radialGradient6830);fill-opacity:1;fill-rule:evenodd;stroke:none;stroke-width:1;marker:none;visibility:visible;display:inline;overflow:visible"
               d="m 22.581352,26.976032 c 0.382976,1.592821 0.879593,2.617425 1.378024,3.63297 1.557945,-0.141254 2.799552,-0.915186 4.008794,-1.753848 -0.724548,1.512102 -1.575366,2.940025 -2.653569,4.216357 2.270948,0.883222 4.376158,0.689161 6.411814,0.04299 -1.428429,1.196032 -2.812916,2.119287 -5.72595,2.401716 2.102821,0.634482 4.433505,1.364631 7.354522,0.479605 -2.682767,1.549797 -5.500023,2.723024 -8.769237,2.630771 l 3.235651,-0.04559 -6.492797,0.296145 -3.38242,-0.626374 0.125275,-1.503298 c -1.414411,0.157495 -2.986768,-0.63268 -4.509894,-1.127473 1.368502,-0.606957 2.838834,-1.086627 3.758245,-2.254947 -1.77933,-0.350343 -2.627922,-1.631422 -3.88352,-2.505497 1.670327,0.25058 3.216832,1.244081 5.010993,0.751649 -0.937328,-2.589012 -0.824985,-5.178026 -1.127473,-7.767039 1.02322,2.213188 1.689278,4.426378 3.13187,6.639566 0.962388,-0.727363 1.639244,-1.954405 2.129672,-3.507695 z"
               id="path6476"
               sodipodi:nodetypes="ccccccccccccccccccc" />
            <path
               sodipodi:type="arc"
               style="opacity:0.33146069;fill:#bbbbb8;fill-opacity:1;fill-rule:evenodd;stroke:#888984;stroke-width:1.15216732;stroke-linecap:round;stroke-linejoin:round;stroke-miterlimit:4;stroke-opacity:1;stroke-dasharray:none;stroke-dashoffset:0;marker:none;visibility:visible;display:inline;overflow:visible"
               id="path6478"
               sodipodi:cx="21.625"
               sodipodi:cy="34.5"
               sodipodi:rx="2.25"
               sodipodi:ry="2.25"
               d="m 23.875,34.5 c 0,1.242641 -1.007359,2.25 -2.25,2.25 -1.242641,0 -2.25,-1.007359 -2.25,-2.25 0,-1.242641 1.007359,-2.25 2.25,-2.25 1.242641,0 2.25,1.007359 2.25,2.25 z"
               transform="matrix(1.0021986,0,0,0.751649,-0.09339085,8.7055574)" />
            <path
               sodipodi:type="arc"
               style="opacity:0.71910113;fill:#b2afad;fill-opacity:1;fill-rule:evenodd;stroke:none;stroke-width:1;marker:none;visibility:visible;display:inline;overflow:visible"
               id="path6480"
               sodipodi:cx="22.375"
               sodipodi:cy="21.75"
               sodipodi:rx="2.625"
               sodipodi:ry="2.3125"
               d="m 25,21.75 c 0,1.277158 -1.175253,2.3125 -2.625,2.3125 -1.449747,0 -2.625,-1.035342 -2.625,-2.3125 0,-1.277158 1.175253,-2.3125 2.625,-2.3125 1.449747,0 2.625,1.035342 2.625,2.3125 z"
               transform="matrix(1.0021986,0,0,1.0021986,-0.09339085,-0.08333043)" />
            <path
               d="m 25,21.75 c 0,1.277158 -1.175253,2.3125 -2.625,2.3125 -1.449747,0 -2.625,-1.035342 -2.625,-2.3125 0,-1.277158 1.175253,-2.3125 2.625,-2.3125 1.449747,0 2.625,1.035342 2.625,2.3125 z"
               sodipodi:ry="2.3125"
               sodipodi:rx="2.625"
               sodipodi:cy="21.75"
               sodipodi:cx="22.375"
               id="path6482"
               style="opacity:0.71910113;fill:#b2afad;fill-opacity:1;fill-rule:evenodd;stroke:none;stroke-width:1;marker:none;visibility:visible;display:inline;overflow:visible"
               sodipodi:type="arc"
               transform="matrix(1.2288859,0,0,1.2288859,-10.20784,-10.423725)" />
            <path
               transform="matrix(1.0625079,0.6174445,-0.6174445,1.0625079,4.3761453,-11.162075)"
               sodipodi:type="arc"
               style="opacity:0.71910113;fill:#b2afad;fill-opacity:1;fill-rule:evenodd;stroke:none;stroke-width:1;marker:none;visibility:visible;display:inline;overflow:visible"
               id="path6484"
               sodipodi:cx="22.375"
               sodipodi:cy="21.75"
               sodipodi:rx="2.625"
               sodipodi:ry="2.3125"
               d="m 25,21.75 c 0,1.277158 -1.175253,2.3125 -2.625,2.3125 -1.449747,0 -2.625,-1.035342 -2.625,-2.3125 0,-1.277158 1.175253,-2.3125 2.625,-2.3125 1.449747,0 2.625,1.035342 2.625,2.3125 z" />
            <path
               transform="matrix(0.399321,0.3761923,-0.2179561,0.3885193,31.47831,6.2785912)"
               sodipodi:type="arc"
               style="opacity:0.71910113;fill:#dfdedc;fill-opacity:1;fill-rule:evenodd;stroke:none;stroke-width:1;marker:none;visibility:visible;display:inline;overflow:visible"
               id="path6486"
               sodipodi:cx="22.375"
               sodipodi:cy="21.75"
               sodipodi:rx="2.625"
               sodipodi:ry="2.3125"
               d="m 25,21.75 c 0,1.277158 -1.175253,2.3125 -2.625,2.3125 -1.449747,0 -2.625,-1.035342 -2.625,-2.3125 0,-1.277158 1.175253,-2.3125 2.625,-2.3125 1.449747,0 2.625,1.035342 2.625,2.3125 z" />
            <path
               d="m 25,21.75 c 0,1.277158 -1.175253,2.3125 -2.625,2.3125 -1.449747,0 -2.625,-1.035342 -2.625,-2.3125 0,-1.277158 1.175253,-2.3125 2.625,-2.3125 1.449747,0 2.625,1.035342 2.625,2.3125 z"
               sodipodi:ry="2.3125"
               sodipodi:rx="2.625"
               sodipodi:cy="21.75"
               sodipodi:cx="22.375"
               id="path6488"
               style="opacity:0.71910113;fill:#dfdedc;fill-opacity:1;fill-rule:evenodd;stroke:none;stroke-width:1;marker:none;visibility:visible;display:inline;overflow:visible"
               sodipodi:type="arc"
               transform="matrix(-0.09445297,0.2674006,-0.2292369,-0.02189072,38.652509,29.452996)"
               inkscape:transform-center-y="1.5541817"
               inkscape:transform-center-x="2.0330157" />
            <path
               inkscape:transform-center-x="-0.61605544"
               inkscape:transform-center-y="2.5542712"
               transform="matrix(0.211943,0.199667,-0.1156818,0.2062104,34.180188,11.437514)"
               sodipodi:type="arc"
               style="opacity:0.71910113;fill:#dfdedc;fill-opacity:1;fill-rule:evenodd;stroke:none;stroke-width:1;marker:none;visibility:visible;display:inline;overflow:visible"
               id="path6490"
               sodipodi:cx="22.375"
               sodipodi:cy="21.75"
               sodipodi:rx="2.625"
               sodipodi:ry="2.3125"
               d="m 25,21.75 c 0,1.277158 -1.175253,2.3125 -2.625,2.3125 -1.449747,0 -2.625,-1.035342 -2.625,-2.3125 0,-1.277158 1.175253,-2.3125 2.625,-2.3125 1.449747,0 2.625,1.035342 2.625,2.3125 z" />
            <path
               d="m 25,21.75 c 0,1.277158 -1.175253,2.3125 -2.625,2.3125 -1.449747,0 -2.625,-1.035342 -2.625,-2.3125 0,-1.277158 1.175253,-2.3125 2.625,-2.3125 1.449747,0 2.625,1.035342 2.625,2.3125 z"
               sodipodi:ry="2.3125"
               sodipodi:rx="2.625"
               sodipodi:cy="21.75"
               sodipodi:cx="22.375"
               id="path6492"
               style="opacity:0.71910113;fill:#f7f7f6;fill-opacity:1;fill-rule:evenodd;stroke:none;stroke-width:1;marker:none;visibility:visible;display:inline;overflow:visible"
               sodipodi:type="arc"
               transform="matrix(0.5033001,-0.218328,0.2708853,0.3536568,2.5745951,8.5577442)" />
            <path
               transform="matrix(0.3023924,-0.1311758,0.162753,0.2124841,12.204177,8.5709401)"
               sodipodi:type="arc"
               style="opacity:0.71910113;fill:#f7f7f6;fill-opacity:1;fill-rule:evenodd;stroke:none;stroke-width:1;marker:none;visibility:visible;display:inline;overflow:visible"
               id="path6494"
               sodipodi:cx="22.375"
               sodipodi:cy="21.75"
               sodipodi:rx="2.625"
               sodipodi:ry="2.3125"
               d="m 25,21.75 c 0,1.277158 -1.175253,2.3125 -2.625,2.3125 -1.449747,0 -2.625,-1.035342 -2.625,-2.3125 0,-1.277158 1.175253,-2.3125 2.625,-2.3125 1.449747,0 2.625,1.035342 2.625,2.3125 z"
               inkscape:transform-center-x="2.2304367" />
            <path
               inkscape:transform-center-x="1.5718105"
               d="m 25,21.75 c 0,1.277158 -1.175253,2.3125 -2.625,2.3125 -1.449747,0 -2.625,-1.035342 -2.625,-2.3125 0,-1.277158 1.175253,-2.3125 2.625,-2.3125 1.449747,0 2.625,1.035342 2.625,2.3125 z"
               sodipodi:ry="2.3125"
               sodipodi:rx="2.625"
               sodipodi:cy="21.75"
               sodipodi:cx="22.375"
               id="path6496"
               style="opacity:0.71910113;fill:#f7f7f6;fill-opacity:1;fill-rule:evenodd;stroke:none;stroke-width:1;marker:none;visibility:visible;display:inline;overflow:visible"
               sodipodi:type="arc"
               transform="matrix(0.2131005,-0.09244146,0.1146946,0.1497405,14.810756,10.929169)" />
          </g>
        </g>
      </g>
    </g>
  </g>
</svg>
