<?xml version="1.0" encoding="UTF-8" standalone="no"?>
<!-- Created with Inkscape (http://www.inkscape.org/) -->

<svg
   xmlns:dc="http://purl.org/dc/elements/1.1/"
   xmlns:cc="http://creativecommons.org/ns#"
   xmlns:rdf="http://www.w3.org/1999/02/22-rdf-syntax-ns#"
   xmlns:svg="http://www.w3.org/2000/svg"
   xmlns="http://www.w3.org/2000/svg"
   xmlns:xlink="http://www.w3.org/1999/xlink"
   xmlns:sodipodi="http://sodipodi.sourceforge.net/DTD/sodipodi-0.dtd"
   xmlns:inkscape="http://www.inkscape.org/namespaces/inkscape"
   width="48px"
   height="48px"
   id="svg3889"
   version="1.1"
   inkscape:version="0.48.4 r9939"
   sodipodi:docname="New document 6">
  <defs
     id="defs3891">
    <radialGradient
       inkscape:collect="always"
       xlink:href="#linearGradient5164"
       id="radialGradient7940"
       gradientUnits="userSpaceOnUse"
       cx="23.688078"
       cy="23.42804"
       fx="23.688078"
       fy="23.42804"
       r="22.45064" />
    <linearGradient
       inkscape:collect="always"
       id="linearGradient5164">
      <stop
         style="stop-color:white;stop-opacity:1;"
         offset="0"
         id="stop5166" />
      <stop
         style="stop-color:white;stop-opacity:0;"
         offset="1"
         id="stop5168" />
    </linearGradient>
    <radialGradient
       inkscape:collect="always"
       xlink:href="#linearGradient5154"
       id="radialGradient7942"
       gradientUnits="userSpaceOnUse"
       gradientTransform="matrix(1.440625,0,0,1.440625,-10.16586,-3.037035)"
       cx="23.071428"
       cy="6.8925552"
       fx="23.071428"
       fy="6.8925552"
       r="22.812965" />
    <linearGradient
       id="linearGradient5154">
      <stop
         style="stop-color:#d9d8d6;stop-opacity:1;"
         offset="0"
         id="stop5156" />
      <stop
         style="stop-color:#b5b4b0;stop-opacity:1;"
         offset="1"
         id="stop5158" />
    </linearGradient>
    <radialGradient
       inkscape:collect="always"
       xlink:href="#linearGradient5199"
       id="radialGradient7944"
       gradientUnits="userSpaceOnUse"
       gradientTransform="matrix(1.652014,0,0,1.088231,-15.72984,3.156134)"
       cx="24.125"
       cy="9.7349367"
       fx="24.125"
       fy="9.7349367"
       r="15.75" />
    <linearGradient
       id="linearGradient5199">
      <stop
         style="stop-color:#7e7878;stop-opacity:0.09708738;"
         offset="0"
         id="stop5201" />
      <stop
         style="stop-color:#7e7878;stop-opacity:1;"
         offset="1"
         id="stop5203" />
    </linearGradient>
    <radialGradient
       inkscape:collect="always"
       xlink:href="#linearGradient5138"
       id="radialGradient7946"
       gradientUnits="userSpaceOnUse"
       gradientTransform="matrix(3.373032,0,0,3.373032,-54.74925,-26.13148)"
       cx="23.071428"
       cy="11.011853"
       fx="23.071428"
       fy="11.011853"
       r="22.856438" />
    <linearGradient
       inkscape:collect="always"
       id="linearGradient5138">
      <stop
         style="stop-color:white;stop-opacity:1;"
         offset="0"
         id="stop5140" />
      <stop
         style="stop-color:white;stop-opacity:0;"
         offset="1"
         id="stop5142" />
    </linearGradient>
    <radialGradient
       inkscape:collect="always"
       xlink:href="#linearGradient5191"
       id="radialGradient7948"
       gradientUnits="userSpaceOnUse"
       gradientTransform="matrix(1.498147,0,0,1.130677,-11.10293,-5.288817)"
       cx="22.288452"
       cy="34.537094"
       fx="22.288452"
       fy="34.537094"
       r="9.9375" />
    <linearGradient
       inkscape:collect="always"
       id="linearGradient5191">
      <stop
         style="stop-color:#dadad9;stop-opacity:1;"
         offset="0"
         id="stop5193" />
      <stop
         style="stop-color:#dadad9;stop-opacity:0;"
         offset="1"
         id="stop5195" />
    </linearGradient>
    <radialGradient
       inkscape:collect="always"
       xlink:href="#linearGradient1994"
       id="radialGradient7950"
       gradientUnits="userSpaceOnUse"
       gradientTransform="matrix(1.430283,0.00535634,-0.00204052,0.546399,-12.64539,12.08204)"
       cx="30.319067"
       cy="23.864922"
       fx="30.319067"
       fy="23.864922"
       r="16.5" />
    <linearGradient
       id="linearGradient1994">
      <stop
         id="stop1997"
         offset="0"
         style="stop-color:white;stop-opacity:1" />
      <stop
         style="stop-color:white;stop-opacity:1;"
         offset="0.5"
         id="stop2001" />
      <stop
         id="stop1999"
         offset="1"
         style="stop-color:#d3d7cf;stop-opacity:1" />
    </linearGradient>
  </defs>
  <sodipodi:namedview
     id="base"
     pagecolor="#ffffff"
     bordercolor="#666666"
     borderopacity="1.0"
     inkscape:pageopacity="0.0"
     inkscape:pageshadow="2"
     inkscape:zoom="7"
     inkscape:cx="24"
     inkscape:cy="24"
     inkscape:current-layer="layer1"
     showgrid="true"
     inkscape:grid-bbox="true"
     inkscape:document-units="px"
     inkscape:window-width="904"
     inkscape:window-height="672"
     inkscape:window-x="730"
     inkscape:window-y="302"
     inkscape:window-maximized="0" />
  <metadata
     id="metadata3894">
    <rdf:RDF>
      <cc:Work
         rdf:about="">
        <dc:format>image/svg+xml</dc:format>
        <dc:type
           rdf:resource="http://purl.org/dc/dcmitype/StillImage" />
        <dc:title></dc:title>
      </cc:Work>
    </rdf:RDF>
  </metadata>
  <g
     id="layer1"
     inkscape:label="Layer 1"
     inkscape:groupmode="layer">
    <g
       id="g8184"
       inkscape:export-filename="C:\icons\Tango\gnome-icon-theme-2.23.92\48x48\status\weather-night-waning-gibbous-few-clouds.png"
       inkscape:export-xdpi="90"
       inkscape:export-ydpi="90"
       transform="translate(-52,-298)">
      <g
         id="g8161">
        <path
           inkscape:connector-curvature="0"
           style="opacity:0.15;fill:#000000;fill-opacity:1;stroke:none"
           d="m 91,316.92713 c -1.108581,0 -2,0.93019 -2,2.03571 0,0.0757 0.02138,0.11939 0.03125,0.18791 -1.442839,0.36434 -2.540413,1.47976 -2.875,2.94396 -1.163948,0.25342 -2.146702,0.97556 -2.6875,2.0044 -0.06546,0.014 -0.124499,0.0467 -0.1875,0.0626 L 84.5,334.99802 c 1.488643,0 2.768742,-0.6688 3.75,-1.62857 0.506443,0.36945 1.088826,0.62637 1.75,0.62637 1.032922,0 1.89613,-0.57646 2.4375,-1.37802 0.48074,0.21215 0.99749,0.37582 1.5625,0.37582 1.074315,0 2.007294,-0.46886 2.71875,-1.15879 0.254831,0.0879 0.499751,0.18791 0.78125,0.18791 1.379162,0 2.5,-1.15541 2.5,-2.53681 0,-1.38141 -1.130348,-2.5055 -2.5,-2.5055 -0.06256,0 -0.0733,0.025 -0.125,0.0313 -0.353693,-0.61225 -0.880006,-1.09103 -1.5,-1.44066 0.04774,-0.19494 0.125,-0.3697 0.125,-0.59506 0,-1.36756 -0.944579,-2.45826 -2.1875,-2.81868 -0.17494,-0.83032 -0.587398,-1.54591 -1.1875,-2.09835 0.221082,-0.31602 0.375,-0.67308 0.375,-1.09616 0,-1.10552 -0.891419,-2.03571 -2,-2.03571 z"
           id="path6403"
           sodipodi:nodetypes="csccccccscscsssccsccsc" />
        <g
           id="g6411"
           transform="matrix(1,0,0,1.0021986,52,297.91667)">
          <path
             transform="translate(-0.146446,0.103554)"
             d="m 46.138718,23.42804 c 0,12.399145 -10.051494,22.450639 -22.45064,22.450639 -12.399146,0 -22.4506398,-10.051494 -22.4506398,-22.450639 0,-12.399146 10.0514938,-22.45064017 22.4506398,-22.45064017 12.399146,0 22.45064,10.05149417 22.45064,22.45064017 z"
             sodipodi:ry="22.45064"
             sodipodi:rx="22.45064"
             sodipodi:cy="23.42804"
             sodipodi:cx="23.688078"
             id="path6413"
             style="fill:url(#radialGradient7940);fill-opacity:1;fill-rule:evenodd;stroke:none;stroke-width:1;marker:none;visibility:visible;display:inline;overflow:visible"
             sodipodi:type="arc" />
          <path
             transform="matrix(0.746154,0,0,0.74614,6.850475,6.75386)"
             d="m 45.214285,23.142857 c 0,12.229162 -9.913695,22.142856 -22.142857,22.142856 -12.229162,0 -22.1428563,-9.913694 -22.1428563,-22.142856 C 0.9285717,10.913695 10.842266,1 23.071428,1 35.30059,1 45.214285,10.913695 45.214285,23.142857 z"
             sodipodi:ry="22.142857"
             sodipodi:rx="22.142857"
             sodipodi:cy="23.142857"
             sodipodi:cx="23.071428"
             id="path6415"
             style="fill:url(#radialGradient7942);fill-opacity:1;fill-rule:evenodd;stroke:#888a85;stroke-width:1.33874738;stroke-linecap:butt;stroke-linejoin:round;stroke-miterlimit:4;stroke-opacity:1;stroke-dasharray:none;stroke-dashoffset:0;marker:none;visibility:visible;display:inline;overflow:visible"
             sodipodi:type="arc" />
          <path
             inkscape:connector-curvature="0"
             sodipodi:nodetypes="cssssssszsscscsscccssssccc"
             id="path6417"
             d="m 10.875,25 c 0,0 2.59375,1.21875 2.625,2.125 0.03125,0.90625 -2.3125,0.3125 -2.5,1.5 -0.1875,1.1875 0.28125,3.21875 1.75,3.25 1.46875,0.03125 1.84375,-2.4375 4.125,-3.125 2.28125,-0.6875 4,1.46875 5,0.375 1,-1.09375 -1.15625,-2.625 -1,-4.75 0.15625,-2.125 0.53125,-1.71875 1.625,-2.4375 1.09375,-0.71875 1.502992,1.722382 2.75,-0.4375 1.205084,-2.087266 -2.53125,-1.34375 -2.375,-2.75 0.15625,-1.40625 1.09375,-2.96875 3,-2.875 1.90625,0.09375 4.625,3.25 4.625,3.25 1.211141,1.165263 0.03862,3.426401 0.625,5 0.688739,1.848301 2.583333,1.742429 3.875,1.75 0,0 -1.90625,-2.15625 -1.625,-3.5 0.28125,-1.34375 1.375,-2.6875 2.75,-1.875 1.375,0.8125 2.75,5.125 2.75,5.125 l 1,-4.375 L 37.75,16 c 0,0 -3.03125,1.0625 -6.375,0.375 -3.34375,-0.6875 -3.6875,-3.28125 -7,-3.125 -3.3125,0.15625 -3.625,3.46875 -6.25,3.75 -2.625,0.28125 -3.375,-1.15625 -4.25,-2.625 -0.875,-1.46875 0.75,-3.25 0.75,-3.25 l -6.25,8.5 2.5,5.375 z"
             style="opacity:0.33146069;fill:url(#radialGradient7944);fill-opacity:1;fill-rule:evenodd;stroke:none;stroke-width:1;marker:none;visibility:visible;display:inline;overflow:visible" />
          <path
             transform="matrix(0.700698,0,0,0.700684,7.903204,7.809815)"
             d="m 45.214285,23.142857 c 0,12.229162 -9.913695,22.142856 -22.142857,22.142856 -12.229162,0 -22.1428563,-9.913694 -22.1428563,-22.142856 C 0.9285717,10.913695 10.842266,1 23.071428,1 35.30059,1 45.214285,10.913695 45.214285,23.142857 z"
             sodipodi:ry="22.142857"
             sodipodi:rx="22.142857"
             sodipodi:cy="23.142857"
             sodipodi:cx="23.071428"
             id="path6419"
             style="opacity:0.80898874;fill:none;stroke:url(#radialGradient7946);stroke-width:1.42559588;stroke-linecap:butt;stroke-linejoin:round;stroke-miterlimit:4;stroke-opacity:1;stroke-dasharray:none;stroke-dashoffset:0;marker:none;visibility:visible;display:inline;overflow:visible"
             sodipodi:type="arc" />
          <path
             inkscape:connector-curvature="0"
             sodipodi:nodetypes="ccccccccccccccccccc"
             id="path6421"
             d="m 22.625,27 c 0.382135,1.589327 0.877663,2.611683 1.375,3.625 1.554528,-0.140944 2.793411,-0.913178 4,-1.75 -0.722958,1.508785 -1.57191,2.933575 -2.647748,4.207107 2.265966,0.881285 4.366558,0.687649 6.397748,0.04289 -1.425295,1.193408 -2.806745,2.114638 -5.713388,2.396447 2.098208,0.63309 4.423779,1.361637 7.338388,0.478553 -2.676882,1.546397 -5.487958,2.71705 -8.75,2.625 l 3.228553,-0.0455 L 21.375,38.875 18,38.25 l 0.125,-1.5 c -1.411308,0.157149 -2.980215,-0.631292 -4.5,-1.125 1.3655,-0.605625 2.832606,-1.084243 3.75,-2.25 -1.775426,-0.349574 -2.622157,-1.627843 -3.875,-2.5 1.666662,0.25003 3.209775,1.241351 5,0.75 -0.935272,-2.583333 -0.823175,-5.166667 -1.125,-7.75 1.020975,2.208333 1.685572,4.416667 3.125,6.625 0.960276,-0.725767 1.635647,-1.950117 2.125,-3.5 z"
             style="opacity:0.64606742;fill:url(#radialGradient7948);fill-opacity:1;fill-rule:evenodd;stroke:none;stroke-width:1;marker:none;visibility:visible;display:inline;overflow:visible" />
          <path
             transform="matrix(1,0,0,0.75,0,8.769607)"
             d="m 23.875,34.5 c 0,1.242641 -1.007359,2.25 -2.25,2.25 -1.242641,0 -2.25,-1.007359 -2.25,-2.25 0,-1.242641 1.007359,-2.25 2.25,-2.25 1.242641,0 2.25,1.007359 2.25,2.25 z"
             sodipodi:ry="2.25"
             sodipodi:rx="2.25"
             sodipodi:cy="34.5"
             sodipodi:cx="21.625"
             id="path6423"
             style="opacity:0.33146069;fill:#bbbbb8;fill-opacity:1;fill-rule:evenodd;stroke:#888984;stroke-width:1.1534332;stroke-linecap:round;stroke-linejoin:round;stroke-miterlimit:4;stroke-opacity:1;stroke-dasharray:none;stroke-dashoffset:0;marker:none;visibility:visible;display:inline;overflow:visible"
             sodipodi:type="arc" />
          <path
             d="m 25,21.75 c 0,1.277158 -1.175253,2.3125 -2.625,2.3125 -1.449747,0 -2.625,-1.035342 -2.625,-2.3125 0,-1.277158 1.175253,-2.3125 2.625,-2.3125 1.449747,0 2.625,1.035342 2.625,2.3125 z"
             sodipodi:ry="2.3125"
             sodipodi:rx="2.625"
             sodipodi:cy="21.75"
             sodipodi:cx="22.375"
             id="path6425"
             style="opacity:0.71910113;fill:#b2afad;fill-opacity:1;fill-rule:evenodd;stroke:none;stroke-width:1;marker:none;visibility:visible;display:inline;overflow:visible"
             sodipodi:type="arc" />
          <path
             transform="matrix(1.22619,0,0,1.22619,-10.09226,-10.31771)"
             sodipodi:type="arc"
             style="opacity:0.71910113;fill:#b2afad;fill-opacity:1;fill-rule:evenodd;stroke:none;stroke-width:1;marker:none;visibility:visible;display:inline;overflow:visible"
             id="path6427"
             sodipodi:cx="22.375"
             sodipodi:cy="21.75"
             sodipodi:rx="2.625"
             sodipodi:ry="2.3125"
             d="m 25,21.75 c 0,1.277158 -1.175253,2.3125 -2.625,2.3125 -1.449747,0 -2.625,-1.035342 -2.625,-2.3125 0,-1.277158 1.175253,-2.3125 2.625,-2.3125 1.449747,0 2.625,1.035342 2.625,2.3125 z" />
          <path
             d="m 25,21.75 c 0,1.277158 -1.175253,2.3125 -2.625,2.3125 -1.449747,0 -2.625,-1.035342 -2.625,-2.3125 0,-1.277158 1.175253,-2.3125 2.625,-2.3125 1.449747,0 2.625,1.035342 2.625,2.3125 z"
             sodipodi:ry="2.3125"
             sodipodi:rx="2.625"
             sodipodi:cy="21.75"
             sodipodi:cx="22.375"
             id="path6429"
             style="opacity:0.71910113;fill:#b2afad;fill-opacity:1;fill-rule:evenodd;stroke:none;stroke-width:1;marker:none;visibility:visible;display:inline;overflow:visible"
             sodipodi:type="arc"
             transform="matrix(1.060177,0.61609,-0.61609,1.060177,4.459731,-11.05444)" />
          <path
             d="m 25,21.75 c 0,1.277158 -1.175253,2.3125 -2.625,2.3125 -1.449747,0 -2.625,-1.035342 -2.625,-2.3125 0,-1.277158 1.175253,-2.3125 2.625,-2.3125 1.449747,0 2.625,1.035342 2.625,2.3125 z"
             sodipodi:ry="2.3125"
             sodipodi:rx="2.625"
             sodipodi:cy="21.75"
             sodipodi:cx="22.375"
             id="path6431"
             style="opacity:0.71910113;fill:#dfdedc;fill-opacity:1;fill-rule:evenodd;stroke:none;stroke-width:1;marker:none;visibility:visible;display:inline;overflow:visible"
             sodipodi:type="arc"
             transform="matrix(0.398445,0.375367,-0.217478,0.387667,31.50244,6.347965)" />
          <path
             inkscape:transform-center-x="2.0330157"
             inkscape:transform-center-y="1.5541817"
             transform="matrix(-0.09424576,0.266814,-0.228734,-0.0218427,38.6609,29.47153)"
             sodipodi:type="arc"
             style="opacity:0.71910113;fill:#dfdedc;fill-opacity:1;fill-rule:evenodd;stroke:none;stroke-width:1;marker:none;visibility:visible;display:inline;overflow:visible"
             id="path6433"
             sodipodi:cx="22.375"
             sodipodi:cy="21.75"
             sodipodi:rx="2.625"
             sodipodi:ry="2.3125"
             d="m 25,21.75 c 0,1.277158 -1.175253,2.3125 -2.625,2.3125 -1.449747,0 -2.625,-1.035342 -2.625,-2.3125 0,-1.277158 1.175253,-2.3125 2.625,-2.3125 1.449747,0 2.625,1.035342 2.625,2.3125 z" />
          <path
             d="m 25,21.75 c 0,1.277158 -1.175253,2.3125 -2.625,2.3125 -1.449747,0 -2.625,-1.035342 -2.625,-2.3125 0,-1.277158 1.175253,-2.3125 2.625,-2.3125 1.449747,0 2.625,1.035342 2.625,2.3125 z"
             sodipodi:ry="2.3125"
             sodipodi:rx="2.625"
             sodipodi:cy="21.75"
             sodipodi:cx="22.375"
             id="path6435"
             style="opacity:0.71910113;fill:#dfdedc;fill-opacity:1;fill-rule:evenodd;stroke:none;stroke-width:1;marker:none;visibility:visible;display:inline;overflow:visible"
             sodipodi:type="arc"
             transform="matrix(0.211478,0.199229,-0.115428,0.205758,34.19839,11.49557)"
             inkscape:transform-center-y="2.5542712"
             inkscape:transform-center-x="-0.61605544" />
          <path
             transform="matrix(0.502196,-0.217849,0.270291,0.352881,2.662133,8.622118)"
             sodipodi:type="arc"
             style="opacity:0.71910113;fill:#f7f7f6;fill-opacity:1;fill-rule:evenodd;stroke:none;stroke-width:1;marker:none;visibility:visible;display:inline;overflow:visible"
             id="path6437"
             sodipodi:cx="22.375"
             sodipodi:cy="21.75"
             sodipodi:rx="2.625"
             sodipodi:ry="2.3125"
             d="m 25,21.75 c 0,1.277158 -1.175253,2.3125 -2.625,2.3125 -1.449747,0 -2.625,-1.035342 -2.625,-2.3125 0,-1.277158 1.175253,-2.3125 2.625,-2.3125 1.449747,0 2.625,1.035342 2.625,2.3125 z" />
          <path
             inkscape:transform-center-x="2.2304367"
             d="m 25,21.75 c 0,1.277158 -1.175253,2.3125 -2.625,2.3125 -1.449747,0 -2.625,-1.035342 -2.625,-2.3125 0,-1.277158 1.175253,-2.3125 2.625,-2.3125 1.449747,0 2.625,1.035342 2.625,2.3125 z"
             sodipodi:ry="2.3125"
             sodipodi:rx="2.625"
             sodipodi:cy="21.75"
             sodipodi:cx="22.375"
             id="path6439"
             style="opacity:0.71910113;fill:#f7f7f6;fill-opacity:1;fill-rule:evenodd;stroke:none;stroke-width:1;marker:none;visibility:visible;display:inline;overflow:visible"
             sodipodi:type="arc"
             transform="matrix(0.301729,-0.130888,0.162396,0.212018,12.27059,8.635285)" />
          <path
             transform="matrix(0.212633,-0.09223866,0.114443,0.149412,14.87145,10.98834)"
             sodipodi:type="arc"
             style="opacity:0.71910113;fill:#f7f7f6;fill-opacity:1;fill-rule:evenodd;stroke:none;stroke-width:1;marker:none;visibility:visible;display:inline;overflow:visible"
             id="path6441"
             sodipodi:cx="22.375"
             sodipodi:cy="21.75"
             sodipodi:rx="2.625"
             sodipodi:ry="2.3125"
             d="m 25,21.75 c 0,1.277158 -1.175253,2.3125 -2.625,2.3125 -1.449747,0 -2.625,-1.035342 -2.625,-2.3125 0,-1.277158 1.175253,-2.3125 2.625,-2.3125 1.449747,0 2.625,1.035342 2.625,2.3125 z"
             inkscape:transform-center-x="1.5718105" />
        </g>
        <g
           id="g6453"
           transform="matrix(1,0,0,1.0021986,52,297.91667)">
          <path
             inkscape:connector-curvature="0"
             sodipodi:nodetypes="csccccscscscssscscscscscscsssccsccsc"
             id="path6455"
             d="m 39,18.46875 c -0.826405,0 -1.5,0.698212 -1.5,1.53125 0,0.197846 0.05624,0.358064 0.125,0.53125 -1.598589,0.170386 -2.883461,1.406084 -3.09375,3 -1.222566,0.162087 -2.232599,0.944756 -2.71875,2.03125 -0.236388,0.03316 -0.462891,0.0912 -0.6875,0.15625 C 30.687793,24.990958 29.91027,24.5 29,24.5 c -1.261905,0 -2.299221,0.940798 -2.46875,2.15625 C 26.202337,26.568672 25.856372,26.5 25.5,26.5 c -1.30672,0 -2.457392,0.623703 -3.1875,1.59375 C 21.811275,27.71574 21.175693,27.5 20.5,27.5 c -1.056994,0 -1.967129,0.547171 -2.5,1.375 -0.264499,-0.237205 -0.618395,-0.40625 -1,-0.40625 -0.826405,0 -1.5,0.698212 -1.5,1.53125 0,0.833037 0.673594,1.5 1.5,1.5 0.232427,0 0.459913,-0.06084 0.65625,-0.15625 C 18.026664,32.576835 19.146791,33.5 20.5,33.5 c 0.677794,10e-7 1.310481,-0.244856 1.8125,-0.625 0.729196,0.980912 1.872215,1.625 3.1875,1.625 1.120181,0 2.117384,-0.475969 2.84375,-1.21875 C 29.24258,34.61133 30.774997,35.5 32.5,35.5 c 1.490289,10e-7 2.802456,-0.683355 3.71875,-1.71875 C 36.67125,34.23375 37.31,34.5 38,34.5 c 1.011116,-10e-7 1.88756,-0.604503 2.28125,-1.46875 C 40.787002,33.316797 41.378164,33.5 42,33.5 c 1.037532,0 1.954595,-0.467783 2.59375,-1.1875 0.272106,0.140979 0.579405,0.21875 0.90625,0.21875 1.097553,10e-7 2,-0.925434 2,-2.03125 10e-7,-1.105815 -0.902447,-2 -2,-2 -0.126885,0 -0.254699,0.03957 -0.375,0.0625 -0.363457,-0.78622 -0.98152,-1.411556 -1.78125,-1.75 C 43.433344,26.554504 43.5,26.288584 43.5,26 43.5,24.770719 42.60081,23.772017 41.4375,23.5625 41.312758,22.54936 40.764951,21.680113 39.96875,21.125 40.287361,20.848182 40.5,20.456946 40.5,20 40.5,19.166962 39.826406,18.46875 39,18.46875 z"
             style="fill:url(#radialGradient7950);fill-opacity:1;stroke:#729fcf;stroke-width:0.9989025;stroke-linecap:round;stroke-linejoin:miter;stroke-miterlimit:4;stroke-opacity:1;stroke-dasharray:none;stroke-dashoffset:1.20000057" />
          <path
             d="m 39,19.46875 c -0.267973,0 -0.5,0.232665 -0.5,0.53125 0,0.01 -0.02853,0.0057 0.03125,0.15625 a 0.99154039,0.99154039 0 0 1 -0.8125,1.375 c -1.151927,0.122778 -2.068268,0.9844 -2.21875,2.125 A 0.99154039,0.99154039 0 0 1 34.65625,24.5 c -0.880873,0.116786 -1.587945,0.687532 -1.9375,1.46875 a 0.99154039,0.99154039 0 0 1 -0.78125,0.5625 c -0.165038,0.02315 -0.326326,0.06565 -0.53125,0.125 a 0.99154039,0.99154039 0 0 1 -1.125,-0.4375 C 30.009886,25.767027 29.553778,25.5 29,25.5 c -0.769134,0 -1.397239,0.544494 -1.5,1.28125 A 0.99154039,0.99154039 0 0 1 26.28125,27.625 C 25.994853,27.548742 25.729006,27.5 25.5,27.5 c -0.991241,0 -1.854334,0.454205 -2.40625,1.1875 a 0.99154039,0.99154039 0 0 1 -1.375,0.1875 C 21.394432,28.630408 20.964657,28.5 20.5,28.5 c -0.714836,0 -1.293853,0.343256 -1.65625,0.90625 a 0.99154039,0.99154039 0 0 1 -1.5,0.21875 C 17.232196,29.524958 17.08881,29.46875 17,29.46875 c -0.267973,0 -0.5,0.232665 -0.5,0.53125 0,0.298584 0.207032,0.5 0.5,0.5 0.05941,0 0.144167,-0.02626 0.21875,-0.0625 a 0.99154039,0.99154039 0 0 1 1.375,0.625 C 18.84495,31.89873 19.597701,32.5 20.5,32.5 c 0.439017,10e-7 0.87299,-0.14443 1.21875,-0.40625 a 0.99154039,0.99154039 0 0 1 1.375,0.1875 C 23.65097,33.03082 24.508384,33.5 25.5,33.5 c 0.839336,0 1.567744,-0.336401 2.125,-0.90625 a 0.99154039,0.99154039 0 0 1 1.53125,0.125 C 29.877081,33.785429 31.115504,34.5 32.5,34.5 c 1.187212,10e-7 2.220292,-0.529256 2.96875,-1.375 a 0.99154039,0.99154039 0 0 1 1.4375,-0.03125 C 37.16638,33.35388 37.565045,33.5 38,33.5 c 0.615957,-10e-7 1.139125,-0.357196 1.375,-0.875 a 0.99154039,0.99154039 0 0 1 1.40625,-0.46875 C 41.157071,32.368438 41.572894,32.5 42,32.5 c 0.73953,0 1.375621,-0.316615 1.84375,-0.84375 A 0.99154039,0.99154039 0 0 1 45.0625,31.4375 c 0.133627,0.06923 0.267927,0.09375 0.4375,0.09375 0.540243,0 1,-0.464838 1,-1.03125 10e-7,-0.566409 -0.440937,-1 -1,-1 0.07927,0 0.01206,-0.0068 -0.1875,0.03125 a 0.99154039,0.99154039 0 0 1 -1.09375,-0.5625 c -0.267839,-0.579382 -0.685092,-1.010932 -1.25,-1.25 A 0.99154039,0.99154039 0 0 1 42.40625,26.5 C 42.476577,26.297486 42.5,26.135918 42.5,26 c 0,-0.745804 -0.539882,-1.340855 -1.25,-1.46875 A 0.99154039,0.99154039 0 0 1 40.46875,23.6875 c -0.09013,-0.731996 -0.489602,-1.350574 -1.0625,-1.75 A 0.99154039,0.99154039 0 0 1 39.3125,20.375 C 39.446844,20.258279 39.5,20.149369 39.5,20 39.5,19.701415 39.267975,19.46875 39,19.46875 z"
             id="path6457"
             style="fill:none;stroke:#ffffff;stroke-width:0.9989025;stroke-linecap:round;stroke-linejoin:miter;stroke-miterlimit:4;stroke-opacity:1;stroke-dasharray:none;stroke-dashoffset:1.20000057"
             inkscape:original="M 39 18.46875 C 38.173595 18.46875 37.5 19.166962 37.5 20 C 37.5 20.197846 37.556235 20.358064 37.625 20.53125 C 36.026411 20.701636 34.741539 21.937334 34.53125 23.53125 C 33.308684 23.693337 32.298651 24.476006 31.8125 25.5625 C 31.576112 25.595658 31.349609 25.653704 31.125 25.71875 C 30.687793 24.990958 29.91027 24.5 29 24.5 C 27.738095 24.5 26.700779 25.440798 26.53125 26.65625 C 26.202337 26.568672 25.856372 26.5 25.5 26.5 C 24.19328 26.5 23.042608 27.123703 22.3125 28.09375 C 21.811275 27.71574 21.175693 27.5 20.5 27.5 C 19.443006 27.5 18.532871 28.047171 18 28.875 C 17.735501 28.637795 17.381605 28.46875 17 28.46875 C 16.173595 28.46875 15.5 29.166962 15.5 30 C 15.5 30.833037 16.173594 31.5 17 31.5 C 17.232427 31.5 17.459913 31.43916 17.65625 31.34375 C 18.026664 32.576835 19.146791 33.5 20.5 33.5 C 21.177794 33.500001 21.810481 33.255144 22.3125 32.875 C 23.041696 33.855912 24.184715 34.5 25.5 34.5 C 26.620181 34.5 27.617384 34.024031 28.34375 33.28125 C 29.24258 34.61133 30.774997 35.5 32.5 35.5 C 33.990289 35.500001 35.302456 34.816645 36.21875 33.78125 C 36.67125 34.23375 37.31 34.5 38 34.5 C 39.011116 34.499999 39.88756 33.895497 40.28125 33.03125 C 40.787002 33.316797 41.378164 33.5 42 33.5 C 43.037532 33.5 43.954595 33.032217 44.59375 32.3125 C 44.865856 32.453479 45.173155 32.53125 45.5 32.53125 C 46.597553 32.531251 47.5 31.605816 47.5 30.5 C 47.500001 29.394185 46.597553 28.5 45.5 28.5 C 45.373115 28.5 45.245301 28.539575 45.125 28.5625 C 44.761543 27.77628 44.14348 27.150944 43.34375 26.8125 C 43.433344 26.554504 43.5 26.288584 43.5 26 C 43.5 24.770719 42.60081 23.772017 41.4375 23.5625 C 41.312758 22.54936 40.764951 21.680113 39.96875 21.125 C 40.287361 20.848182 40.5 20.456946 40.5 20 C 40.5 19.166962 39.826406 18.46875 39 18.46875 z "
             inkscape:radius="-0.99144125"
             sodipodi:type="inkscape:offset" />
        </g>
      </g>
      <rect
         y="298"
         x="52"
         height="48"
         width="48"
         id="rect6459"
         style="opacity:0;fill:#888a85;fill-opacity:1;fill-rule:evenodd;stroke:none" />
    </g>
  </g>
</svg>
